<svg width="244" height="37" viewBox="0 0 244 37" fill="none" xmlns="http://www.w3.org/2000/svg">
<g clip-path="url(#clip0_344_22986)">
<path d="M4.202 25.957L20.78 29.14L22.068 26.917L7.332 20.55L4.202 25.958V25.957ZM11.882 12.69L24.777 22.244L26.065 20.02L15.013 7.282L11.883 12.69H11.882ZM8.03 19.348L22.766 25.717L24.079 23.445L11.184 13.892L8.03 19.348ZM19.227 0L15.747 6.02L26.8 18.76L28.438 15.936L19.227 0ZM0 33.227H18.42L20.057 30.403L3.48 27.22L0 33.227ZM29.231 25.789L33.541 33.227H38.441L29.231 17.305L20.021 33.227H24.921L29.231 25.789Z" fill="#FCAF17"/>
<path d="M68.4307 33.203H75.4507L77.0637 30.355H68.4317V33.203H68.4307ZM68.4307 25.295V28.143H78.3407L79.9897 25.295H68.4307ZM217.215 28.672V20.26H214.108V33.203H216.709L224.185 24.731V33.203H227.291V20.26H224.547L217.215 28.672ZM86.6957 20.26L79.2557 33.203H82.9157L87.8157 24.658L92.7517 33.203H96.6047L89.1647 20.26H86.6957ZM64.3397 30.354L56.8997 17.4H54.3597L46.9187 30.354H45.0527V37H48.0137V33.202H63.2437V37H66.2057V30.354H64.3397ZM50.6267 30.354L55.5267 21.798L60.4627 30.354H50.6267ZM165.878 20.26H151.419V23.108H164.216L165.878 20.26ZM82.8787 20.26H68.4317V23.108H81.2297L82.8787 20.26ZM241.256 20.26L233.924 28.672V20.26H230.818V33.203H233.43L240.895 24.731V33.203H244.001V20.26H241.256ZM207.474 25.295H200.672V20.26H197.565V33.203H200.672V28.143H207.474V33.203H210.58V20.26H207.474V25.295ZM169.683 20.26L162.243 33.203H165.915L170.815 24.658L175.751 33.203H179.592L172.151 20.26H169.683ZM138.982 24.9H134.263V20.249H131.157V33.203H138.958C141.065 33.203 143.256 32.038 143.256 28.985C143.244 24.972 140.427 24.9 138.982 24.9ZM138.802 30.464H134.251V27.58H138.802C139.331 27.58 140.138 27.724 140.138 29.022C140.138 30.223 139.476 30.464 138.802 30.464ZM147.904 20.26H144.834V33.215H147.904V20.26ZM104.431 19.947C99.2407 19.947 96.7857 23.12 96.7857 26.665C96.7857 30.366 99.1807 33.382 104.431 33.382C106.718 33.382 112.015 32.325 112.015 26.665C112.015 22.964 109.644 19.947 104.431 19.947ZM104.395 30.534C101.397 30.534 100.133 28.816 100.133 26.701C100.133 24.381 101.577 22.831 104.395 22.831C107.573 22.831 108.656 24.381 108.656 26.701C108.656 29.477 106.574 30.534 104.395 30.534ZM151.419 33.203H158.438L160.063 30.355H151.419V33.203ZM151.419 25.295V28.143H161.327L162.988 25.295H151.419ZM183.962 28.6V20.26H180.856V33.203H183.469L190.945 24.803V33.203H194.051V20.26H191.439L183.962 28.6ZM125.571 25.572C126.389 25.223 127.088 24.659 127.088 23.252C127.088 20.572 124.836 20.26 123.247 20.26H114.856V33.215H123.392C127.304 33.215 128.111 31.064 128.111 29.093C128.123 26.87 126.859 25.956 125.571 25.572ZM117.926 23H122.898C123.644 23 123.957 23.385 123.957 24.13C123.957 24.899 123.464 25.295 122.898 25.295H117.926V23ZM123.392 30.463H117.926V27.687H123.392C124.27 27.687 124.909 27.903 124.909 29.057C124.909 29.97 124.523 30.463 123.392 30.463Z" fill="#333333"/>
</g>
<defs>
<clipPath id="clip0_344_22986">
<rect width="244" height="37" fill="white"/>
</clipPath>
</defs>
</svg>
