<svg width="41" height="33" viewBox="0 0 41 33" fill="none" xmlns="http://www.w3.org/2000/svg">
<path d="M0.65625 19.75C0.65625 15.4583 1.73958 11.625 3.90625 8.25C6.11458 4.83333 9.42708 2.08333 13.8438 0L15.0312 2.3125C12.3646 3.4375 10.0729 5.20833 8.15625 7.625C6.23958 10 5.28125 12.4167 5.28125 14.875C5.28125 15.9167 5.40625 16.8125 5.65625 17.5625C7.07292 16.4375 8.65625 15.875 10.4062 15.875C12.6979 15.875 14.6354 16.625 16.2188 18.125C17.8021 19.5833 18.5938 21.5625 18.5938 24.0625C18.5938 26.3958 17.7812 28.3542 16.1562 29.9375C14.5729 31.4792 12.6562 32.25 10.4062 32.25C7.11458 32.25 4.59375 30.8958 2.84375 28.1875C1.38542 25.9375 0.65625 23.125 0.65625 19.75ZM22.4062 19.75C22.4062 15.4583 23.4896 11.625 25.6562 8.25C27.8646 4.83333 31.1771 2.08333 35.5938 0L36.7812 2.3125C34.1146 3.4375 31.8229 5.20833 29.9062 7.625C27.9896 10 27.0312 12.4167 27.0312 14.875C27.0312 15.9167 27.1562 16.8125 27.4062 17.5625C28.8646 16.4375 30.4479 15.875 32.1562 15.875C34.4896 15.875 36.4271 16.625 37.9688 18.125C39.5521 19.5833 40.3438 21.5625 40.3438 24.0625C40.3438 26.3958 39.5521 28.3542 37.9688 29.9375C36.3854 31.4792 34.4479 32.25 32.1562 32.25C28.8646 32.25 26.3438 30.8958 24.5938 28.1875C23.1354 25.9375 22.4062 23.125 22.4062 19.75Z" fill="#9C7C56"/>
</svg>
