<svg width="96" height="96" viewBox="0 0 96 96" fill="none" xmlns="http://www.w3.org/2000/svg">
<path fill-rule="evenodd" clip-rule="evenodd" d="M15 48C15 29.774 29.774 15 48 15C66.226 15 81 29.7757 81 48C81 66.226 66.2243 81 48 81C29.774 81 15 66.2243 15 48ZM48 17C30.8786 17 17 30.8786 17 48C17 65.1198 30.8786 79 48 79C65.1198 79 79 65.1214 79 48C79 30.8802 65.1214 17 48 17ZM47.9984 20.7385C48.5507 20.7385 48.9984 21.1862 48.9984 21.7385V32.4709L61.3238 39.5869C61.6332 39.7655 61.8238 40.0956 61.8238 40.4529V53.143L72.6999 59.4234C73.1782 59.6996 73.342 60.3112 73.0658 60.7894C72.7896 61.2677 72.178 61.4315 71.6998 61.1554L60.8238 54.875L48.4984 61.991C48.189 62.1696 47.8079 62.1697 47.4985 61.9911L35.173 54.8766L24.2969 61.1554C23.8186 61.4315 23.207 61.2676 22.9309 60.7893C22.6548 60.311 22.8187 59.6995 23.297 59.4233L34.1745 53.1436V40.4529C34.1745 40.0957 34.3651 39.7655 34.6745 39.5869L46.9984 32.4709V21.7385C46.9984 21.1862 47.4461 20.7385 47.9984 20.7385ZM47.9984 34.2029L37.1744 40.4529L47.9984 46.7029L58.8238 40.4529L47.9984 34.2029ZM59.8238 42.1849L48.9984 48.4349V59.393L59.8238 53.143V42.1849ZM46.9984 59.3932V48.4349L36.1745 42.1851V53.1454L46.9984 59.3932Z" fill="currentColor"/>
</svg>
