<svg width="24" height="27" viewBox="0 0 24 27" fill="none" xmlns="http://www.w3.org/2000/svg">
  <path d="M11.5834 15.048L11.8333 14.9037V14.615V9.78451L12 9.68831L12.1667 9.78451V14.6146V14.9033L12.4166 15.0476L16.6 17.4633V17.6561L16.4333 17.7523L12.25 15.3367L12 15.1923L11.75 15.3367L7.56665 17.7523L7.39999 17.6561V17.4637L11.5834 15.048ZM22.4881 15.5H22.8218C22.7309 17.4671 22.1052 19.3759 21.0076 21.0186C19.8172 22.8001 18.1253 24.1887 16.1457 25.0087C14.1662 25.8286 11.988 26.0431 9.88645 25.6252C7.78505 25.2071 5.85473 24.1753 4.33967 22.6603C2.8246 21.1451 1.79283 19.2149 1.37483 17.1133L0.884433 17.2109L1.37482 17.1133C0.956812 15.0119 1.17135 12.8337 1.9913 10.8542L1.99131 10.8542C2.81125 8.87466 4.19979 7.18272 5.98132 5.99234L5.70354 5.57661L5.98133 5.99234C7.76286 4.80195 9.85741 4.1666 12 4.1666H14.8368H16.0439L15.1903 3.31304L13.5823 1.705L13.8179 1.46944L16.6817 4.33326L13.8179 7.19709L13.5823 6.96153L15.1903 5.35348L16.0439 4.49993H14.8368H12C9.92323 4.49993 7.89323 5.11573 6.16651 6.2695C4.4398 7.42325 3.09398 9.06313 2.29927 10.9817C1.50454 12.9004 1.2966 15.0116 1.70175 17.0484L2.19214 16.9509L1.70175 17.0484C2.10689 19.0852 3.10693 20.9561 4.57537 22.4246L4.91752 22.0824L4.57537 22.4246C6.04383 23.893 7.91475 24.8931 9.95151 25.2982L10.0491 24.8078L9.95151 25.2982C11.9884 25.7034 14.0996 25.4953 16.0181 24.7007L16.0181 24.7007C17.9368 23.9059 19.5767 22.5601 20.7304 20.8335L20.7304 20.8335C21.7913 19.2456 22.3975 17.4012 22.4881 15.5Z" stroke="currentColor" />
</svg>