<svg width="96" height="96" viewBox="0 0 96 96" fill="none" xmlns="http://www.w3.org/2000/svg">
  <path d="M69.2 27.6C68.0954 27.6 67.2 26.7046 67.2 25.6V18.8C67.2 18.5878 67.1158 18.3844 66.9658 18.2343C66.8157 18.0843 66.6122 18 66.4 18C66.1878 18 65.9843 18.0843 65.8342 18.2343C65.6842 18.3844 65.6 18.5878 65.6 18.8V25.6C65.6 26.7046 64.7046 27.6 63.6 27.6H32.4C31.2954 27.6 30.4 26.7046 30.4 25.6V18.8C30.4 18.5878 30.3157 18.3844 30.1657 18.2343C30.0156 18.0843 29.8122 18 29.6 18C29.3878 18 29.1844 18.0843 29.0343 18.2343C28.8843 18.3844 28.8 18.5878 28.8 18.8V25.6C28.8 26.7046 27.9046 27.6 26.8 27.6H18C16.8954 27.6 16 28.4954 16 29.6V76.8C16 77.9046 16.8954 78.8 18 78.8H78C79.1046 78.8 80 77.9046 80 76.8V29.6C80 28.4954 79.1046 27.6 78 27.6H69.2ZM78.4 75.2C78.4 76.3046 77.5046 77.2 76.4 77.2H19.6C18.4954 77.2 17.6 76.3046 17.6 75.2V31.2C17.6 30.0954 18.4954 29.2 19.6 29.2H76.4C77.5046 29.2 78.4 30.0954 78.4 31.2V75.2ZM59.4914 45.9719C59.7973 45.6526 59.7863 45.1457 59.4667 44.84C59.1476 44.5347 58.6414 44.5458 58.3358 44.8647L47.0783 56.6147C46.291 57.4365 44.9775 57.4365 44.1901 56.6148L37.5845 49.7209C37.2789 49.402 36.7728 49.391 36.4536 49.6963C36.1341 50.002 36.1231 50.5089 36.429 50.8282L44.1907 58.9273C44.9782 59.749 46.2915 59.7489 47.0788 58.9271L59.4914 45.9719Z" stroke="currentColor" />
</svg>