<svg width="32" height="32" viewBox="0 0 32 32" fill="none" xmlns="http://www.w3.org/2000/svg">
<path d="M4 5H7.14754L11.082 19.6286H26.0328L28 10.3895H14.2295M16.1967 13.4692V16.5489M21.3115 13.4692V16.5489" stroke="currentColor"/>
<path d="M15.0349 24.633C15.0349 25.6939 14.1537 26.5678 13.0492 26.5678C11.9449 26.5678 11.0636 25.6939 11.0636 24.633C11.0636 23.5721 11.9449 22.6982 13.0492 22.6982C14.1537 22.6982 15.0349 23.5721 15.0349 24.633Z" stroke="currentColor"/>
<path d="M26.0513 24.633C26.0513 25.6939 25.17 26.5678 24.0656 26.5678C22.9612 26.5678 22.08 25.6939 22.08 24.633C22.08 23.5721 22.9612 22.6982 24.0656 22.6982C25.17 22.6982 26.0513 23.5721 26.0513 24.633Z" stroke="currentColor"/>
</svg>
