<svg width="48" height="48" viewBox="0 0 48 48" fill="none" xmlns="http://www.w3.org/2000/svg">
<g clip-path="url(#clip0_385_18186)">
<path d="M4.77397 20.2948C4.77397 21.6033 3.73171 22.7242 2.32486 22.7242C1.1625 22.7242 0.00013877 21.7908 0.00013877 20.3602C0.00013877 19.0517 0.978068 17.8697 2.3892 17.8697C3.36713 17.8697 4.28501 18.4934 4.59383 19.4268C4.71822 19.7365 4.77826 20.0505 4.77826 20.2991L4.77397 20.2948ZM2.38491 30.1303C0.91373 30.1303 -0.00415039 28.8218 -0.00415039 27.6398C-0.00415039 26.2092 1.21826 25.2758 2.38491 25.2758C3.79176 25.2758 4.77397 26.4578 4.77397 27.6398C4.77397 27.9495 4.71393 28.2635 4.58954 28.5732C4.16062 29.5066 3.30279 30.1303 2.38491 30.1303ZM7.10299 13.3249C7.10299 14.5069 6.12506 15.7543 4.71393 15.7543C3.49152 15.7543 2.32486 14.6944 2.32486 13.2638C2.32486 12.0207 3.36713 10.8998 4.77397 10.8998C5.69186 10.8998 6.60974 11.4581 6.91856 12.3958C7.04294 12.7055 7.10299 13.0195 7.10299 13.3292V13.3249ZM4.71393 37.109C3.30708 37.109 2.32486 35.988 2.32486 34.6795C2.32486 33.2489 3.42718 32.2501 4.64959 32.2501C6.05643 32.2501 7.0987 33.4321 7.0987 34.6795C7.0987 34.9892 7.03865 35.2378 6.91427 35.5518C6.60974 36.4852 5.69186 37.109 4.70964 37.109H4.71393ZM11.0833 7.72013C11.0833 9.15075 10.1054 10.1496 8.69427 10.1496C7.53191 10.1496 6.30521 9.27724 6.30521 7.78555C6.30521 6.60354 7.28313 5.35611 8.69427 5.35611C9.61215 5.35611 10.47 5.9144 10.8989 6.85216C11.0233 7.16184 11.0833 7.47587 11.0833 7.72449V7.72013ZM8.63422 42.6482C7.22737 42.6482 6.30949 41.3398 6.30949 40.1577C6.30949 38.7271 7.47186 37.7937 8.63422 37.7937C10.0411 37.7937 11.0833 38.9147 11.0833 40.2232C11.0833 40.5328 11.0233 40.8469 10.8989 41.0955C10.47 42.0289 9.5521 42.6526 8.63422 42.6526V42.6482ZM17.1439 3.86006C17.1439 5.04207 16.226 6.2895 14.8192 6.2895C13.6568 6.2895 12.3701 5.41717 12.3701 3.98655C12.3701 2.74348 13.288 1.43498 14.6948 1.43498C15.7371 1.43498 16.5906 1.99328 17.0195 2.99209C17.0796 3.30177 17.1439 3.55039 17.1439 3.86442V3.86006ZM14.7549 46.504C13.348 46.504 12.3658 45.383 12.3658 44.0745C12.3658 42.5785 13.5882 41.6451 14.7549 41.6451C16.1617 41.6451 17.1439 42.8271 17.1439 44.1356C17.1439 44.3231 17.0839 44.6328 17.0195 44.9468C16.5906 45.9413 15.7328 46.504 14.7549 46.504ZM21.8577 4.79346C20.3865 4.79346 19.4686 3.61145 19.4686 2.36402C19.4686 0.933394 20.631 0 21.7934 0C23.2002 0 24.2425 1.12095 24.2425 2.36402C24.2425 2.67369 24.1824 2.98773 24.058 3.23635C23.6291 4.2308 22.7713 4.79346 21.8534 4.79346H21.8577ZM24.2468 45.5706C24.2468 46.7526 23.2688 48 21.8577 48C20.6953 48 19.4686 47.0666 19.4686 45.636C19.4686 44.3275 20.4466 43.1455 21.8577 43.1455C22.8356 43.1455 23.7535 43.7692 24.0623 44.7026C24.1867 45.0123 24.2468 45.3263 24.2468 45.5749V45.5706ZM27.0004 2.92667C27.0004 1.6836 27.9783 0.497229 29.3895 0.497229C30.8006 0.497229 31.7785 1.55711 31.7785 2.98773C31.7785 4.41835 30.8006 5.35175 29.3895 5.35175C28.2271 5.35175 27.2449 4.54048 27.0647 3.35847C27.0047 3.29741 27.0047 3.10986 27.0047 2.92231L27.0004 2.92667ZM27.0004 45.2609C27.0004 43.9524 27.9783 42.8314 29.3895 42.8314C30.8006 42.8314 31.7785 43.8913 31.7785 45.383C31.7785 46.565 30.8006 47.6249 29.3895 47.6249C28.2271 47.6249 27.2449 46.8791 27.0647 45.6927C27.0047 45.6316 27.0047 45.4441 27.0047 45.2565L27.0004 45.2609ZM33.6743 42.3953C33.6743 41.0868 34.7767 40.0313 36.0634 40.0313C37.3502 40.0313 38.4525 41.0911 38.4525 42.5218C38.4525 43.7648 37.5346 44.8858 36.0634 44.8858C34.901 44.8858 33.9188 44.1399 33.7387 42.9579C33.6786 42.8314 33.6786 42.6483 33.6786 42.3996L33.6743 42.3953ZM36.1835 3.17528C37.5903 3.17528 38.5726 4.35729 38.5726 5.5393C38.5726 6.96992 37.3502 8.0298 36.1235 8.0298C34.7166 8.0298 33.7344 6.8478 33.7344 5.66579C33.7344 5.22962 33.8588 4.79346 34.1033 4.35729C34.5322 3.54602 35.2656 3.17528 36.1835 3.17528ZM38.4482 37.7283C38.4482 36.4198 39.5505 35.2378 40.8372 35.2378C42.2441 35.2378 43.2864 36.2977 43.2864 37.7283C43.2864 39.0368 42.3685 40.0923 40.8372 40.0923C39.6749 40.0923 38.6927 39.3465 38.5125 38.1645C38.4525 38.1034 38.4525 37.9159 38.4525 37.7283H38.4482ZM41.5106 8.09523C42.9175 8.09523 43.8997 9.21617 43.8997 10.3982C43.8997 11.8288 42.7373 12.9497 41.5106 12.9497C40.1038 12.9497 39.1216 11.7677 39.1216 10.5857C39.1216 10.1496 39.246 9.7134 39.4904 9.27724C39.9194 8.46597 40.5928 8.09523 41.5106 8.09523ZM41.9396 31.1945C41.9396 29.9515 42.9818 28.7651 44.3887 28.7651C45.6111 28.7651 46.7777 29.6985 46.7777 31.1945C46.7777 32.6906 45.6754 33.624 44.2686 33.624C43.1062 33.624 42.1883 32.8781 42.0039 31.6307C41.9438 31.5696 41.9438 31.3821 41.9438 31.1945H41.9396ZM44.3887 14.1972C45.7955 14.1972 46.8378 15.3792 46.8378 16.6266C46.8378 18.0572 45.6754 19.1171 44.5131 19.1171C43.1062 19.1171 42.0639 17.8741 42.0639 16.6266C42.0639 16.2515 42.1883 15.8154 42.4328 15.3836C42.8617 14.5723 43.5351 14.2015 44.393 14.2015L44.3887 14.1972ZM45.551 21.4811C46.9579 21.4811 48.0001 22.6632 48.0001 23.9716C48.0001 25.4023 46.8378 26.3357 45.551 26.3357C44.1442 26.3357 43.162 25.1537 43.162 23.9062C43.162 23.5311 43.2864 23.095 43.5308 22.6632C44.0798 21.8519 44.7532 21.4201 45.551 21.4811Z" fill="currentColor"/>
</g>
<defs>
<clipPath id="clip0_385_18186">
<rect width="48" height="48" fill="white"/>
</clipPath>
</defs>
</svg>
