<svg width="57" height="90" viewBox="0 0 57 90" fill="none" xmlns="http://www.w3.org/2000/svg">
  <path fill-rule="evenodd" clip-rule="evenodd" d="M27.5 22.1296L8.81931 30.3143C8.41062 30.4933 8.17001 30.9215 8.22956 31.3637C8.28911 31.8059 8.6344 32.1551 9.07589 32.2197L13.0639 32.803C13.1614 32.8172 13.2605 32.817 13.358 32.8023L18.6671 32.0003L18.3684 30.0227L13.2062 30.8025L12.8182 30.7458L28.5245 23.8643L44.2307 30.7457L43.8435 30.8024L38.5843 29.9986L38.2822 31.9757L43.6892 32.802C43.7872 32.817 43.8869 32.8173 43.985 32.803L47.973 32.2197C48.4145 32.1551 48.7598 31.8059 48.8194 31.3637C48.8789 30.9215 48.6383 30.4933 48.2296 30.3143L29.5 22.1082V0H27.5V22.1296ZM20.5266 29.7945L25.4198 25.2254L26.7848 26.6872L23.0119 30.2101L28.5245 32.5726L34.0333 30.2117L30.6084 27.0291L31.9698 25.564L36.5206 29.7929C36.7684 30.0232 36.883 30.3631 36.8251 30.6965C36.7672 31.0298 36.5448 31.3113 36.2338 31.4445L28.9184 34.5797C28.6669 34.6875 28.3821 34.6875 28.1306 34.5797L20.8151 31.4445C20.5046 31.3114 20.2822 31.0305 20.224 30.6977C20.1658 30.3648 20.2796 30.0251 20.5266 29.7945ZM1.5564 40.2291L9.53241 32.5978L10.9151 34.0429L4.73939 39.9517H7.37177L11.0836 36.9204L12.3487 38.4695L8.36073 41.7262C8.18218 41.872 7.95873 41.9517 7.72821 41.9517H2.24773C1.83924 41.9517 1.47182 41.7032 1.31968 41.3241C1.16753 40.945 1.26126 40.5115 1.5564 40.2291ZM47.834 32.9374L55.4674 40.2285C55.7629 40.5108 55.8569 40.9444 55.7049 41.3237C55.5529 41.703 55.1853 41.9517 54.7767 41.9517H49.2963C49.0656 41.9517 48.842 41.8719 48.6634 41.726L44.7977 38.5665L46.0634 37.0179L49.653 39.9517H52.2819L46.4525 34.3837L47.834 32.9374ZM12.4506 35.8519L14.8972 33.0084L16.4133 34.3128L14.599 36.4213L16.2884 37.9682L26.4948 35.1276L27.0311 37.0543L16.2903 40.0437C15.958 40.1362 15.6014 40.0508 15.3469 39.8178L12.5333 37.2416C12.1348 36.8768 12.0982 36.2614 12.4506 35.8519ZM42.1517 33.0084L44.5983 35.8519C44.9507 36.2614 44.9141 36.8768 44.5156 37.2416L41.702 39.8178C41.4475 40.0508 41.0909 40.1362 40.7586 40.0437L30.0179 37.0543L30.5541 35.1276L40.7605 37.9682L42.4499 36.4213L40.6356 34.3128L42.1517 33.0084ZM39.6589 44.4194L38.1665 41.2843L39.9723 40.4246L41.2445 43.0971L50.8163 44.8334V43.1876H52.8163V46.0311C52.8163 46.3276 52.6848 46.6088 52.4572 46.7988C52.2296 46.9888 51.9295 47.068 51.6378 47.0151L40.3833 44.9736C40.0668 44.9161 39.7972 44.7099 39.6589 44.4194ZM19.5903 43.0838L20.0528 41.1612L18.1082 40.6935L17.4477 43.4398C17.3333 43.9152 17.5795 44.4035 18.0296 44.5943L28.0607 48.8475C28.3105 48.9534 28.5927 48.9533 28.8424 48.847L37.528 45.1529L36.7452 43.3124L28.4504 46.8404L19.5903 43.0838ZM4.23261 46.0311V42.7987H6.23261V44.8334L16.3086 43.0057L16.6656 44.9736L5.41109 47.0151C5.1194 47.068 4.81927 46.9888 4.5917 46.7988C4.36414 46.6088 4.23261 46.3276 4.23261 46.0311ZM8.2621 50.6076L9.92586 46.2572L11.7939 46.9716L10.3406 50.7716L14.5046 55.719L26.7438 51.3357L27.4181 53.2186L14.5244 57.8363C14.1309 57.9772 13.6913 57.8586 13.4222 57.5388L8.43104 51.6087C8.19691 51.3305 8.13222 50.9472 8.2621 50.6076ZM0.104546 50.5196L2.06181 46.5824L3.85272 47.4727L2.04748 51.1041L2.23558 52.0473L7.17418 49.5159L8.08647 51.2957L1.96991 54.4309C1.6909 54.5739 1.36097 54.5778 1.07867 54.4413C0.796377 54.3049 0.594402 54.044 0.533083 53.7365L0.0193131 51.1604C-0.0239877 50.9432 0.00598983 50.7179 0.104546 50.5196ZM48.487 50.8758L46.9211 47.9351L48.6865 46.9951L50.1049 49.659L54.7644 52.0473L54.9523 51.1051L53.5396 48.2764L55.3288 47.3828L56.8946 50.518C56.9938 50.7166 57.0241 50.9426 56.9807 51.1604L56.4669 53.7365C56.4056 54.044 56.2036 54.3049 55.9213 54.4413C55.639 54.5778 55.3091 54.5739 55.0301 54.4309L48.9135 51.2957C48.7318 51.2026 48.583 51.056 48.487 50.8758ZM48.1779 52.0942L43.6027 57.5382C43.3335 57.8586 42.8933 57.9774 42.4994 57.8361L30.511 53.5344L31.1865 51.6519L42.5196 55.7185L46.6468 50.8075L48.1779 52.0942ZM3.20309 56.5919L4.08391 53.8213L5.98991 54.4272L5.23766 56.7934L7.24776 60.5181L15.4357 59.3081L15.728 61.2866L6.84678 62.599C6.43057 62.6605 6.02038 62.455 5.82057 62.0847L3.27606 57.3698C3.14726 57.1311 3.12092 56.8504 3.20309 56.5919ZM53.0119 54.1794L53.7948 56.5855C53.8588 56.7824 53.8602 56.9944 53.7986 57.1921L52.3307 61.907C52.186 62.3717 51.7278 62.6648 51.2453 62.6012L41.2875 61.2888L41.5488 59.306L50.6715 60.5083L51.7944 56.9016L51.11 54.7982L53.0119 54.1794ZM38.6051 56.6952L39.462 60.8997C39.5416 61.2899 39.382 61.6901 39.0558 61.9186L29.0246 68.9423C28.6802 69.1834 28.2218 69.1834 27.8775 68.9423L17.8464 61.9186C17.517 61.688 17.3578 61.2826 17.4422 60.8895L18.2979 56.9037L20.2533 57.3235L19.5369 60.6607L28.451 66.9024L37.3713 60.6564L36.6454 57.0946L38.6051 56.6952ZM5.1536 70.6817L3.7346 62.7831L5.70308 62.4294L7.12209 70.3281L5.1536 70.6817ZM16.7058 75.8942L8.99897 64.277L10.6656 63.1714L17.7993 73.9247L24.8593 68.8657L26.0242 70.4914L18.1216 76.1542C17.9009 76.3123 17.6255 76.3739 17.3585 76.3249C17.0915 76.2759 16.8559 76.1204 16.7058 75.8942ZM46.7794 67.7787L40.1911 75.9682C39.8586 76.3814 39.2614 76.4632 38.83 76.1546L30.6094 70.2731L31.7732 68.6466L39.2252 73.9781L47.6853 63.4619L49.2436 64.7156L46.8542 67.6857H48.7794V72.2305C48.7794 72.3477 48.7588 72.4639 48.7185 72.574L45.856 80.3998C45.7374 80.7238 45.4602 80.9639 45.1225 81.0349C44.7848 81.1059 44.4344 80.9977 44.1954 80.7488L40.6723 77.0789L42.115 75.6939L44.5282 78.2076L46.7794 72.0533V67.7787ZM53.2114 63.9512L51.7679 70.9263L49.8094 70.521L51.2529 63.5458L53.2114 63.9512ZM8.17171 72.2305V67.6857H10.1717V72.0533L12.4228 78.2075L14.836 75.6939L16.2787 77.0789L12.7556 80.7488C12.5166 80.9977 12.1662 81.1059 11.8285 81.0349C11.4908 80.9639 11.2136 80.7238 11.0951 80.3998L8.23256 72.574C8.19231 72.4639 8.17171 72.3477 8.17171 72.2305ZM36.4603 76.8392L29.1693 83.863C28.782 84.2361 28.169 84.2361 27.7817 83.863L20.4908 76.8392L21.8784 75.3989L28.4755 81.7543L35.0727 75.3989L36.4603 76.8392ZM14.8906 84.9934L14.1322 80.6917L16.1018 80.3444L16.7849 84.219L22.144 87.7138L25.5582 84.2183L26.9889 85.6157L23.0009 89.6987C22.6674 90.0402 22.1391 90.0984 21.7393 89.8376L15.3292 85.6574C15.0974 85.5063 14.9387 85.2659 14.8906 84.9934ZM42.8433 80.6917L42.0849 84.9934C42.0369 85.2659 41.8781 85.5063 41.6463 85.6574L35.2362 89.8376C34.8363 90.0984 34.3079 90.0402 33.9744 89.6986L30.0353 85.6642L31.4664 84.267L34.8317 87.7137L40.1906 84.219L40.8737 80.3444L42.8433 80.6917Z" fill="currentColor" />
</svg>