<svg width="96" height="96" viewBox="0 0 96 96" fill="none" xmlns="http://www.w3.org/2000/svg">
<path fill-rule="evenodd" clip-rule="evenodd" d="M46.5 25.1296L27.8193 33.3143C27.4106 33.4933 27.17 33.9215 27.2296 34.3637C27.2891 34.8059 27.6344 35.1551 28.0759 35.2197L32.0639 35.803C32.1614 35.8172 32.2605 35.817 32.358 35.8023L37.6671 35.0003L37.3684 33.0227L32.2062 33.8025L31.8182 33.7458L47.5245 26.8643L63.2307 33.7457L62.8435 33.8024L57.5843 32.9986L57.2822 34.9757L62.6892 35.802C62.7872 35.817 62.8869 35.8173 62.985 35.803L66.973 35.2197C67.4145 35.1551 67.7598 34.8059 67.8194 34.3637C67.8789 33.9215 67.6383 33.4933 67.2296 33.3143L48.5 25.1082V3H46.5V25.1296ZM39.5266 32.7945L44.4198 28.2254L45.7848 29.6872L42.0119 33.2101L47.5245 35.5726L53.0333 33.2117L49.6084 30.0291L50.9698 28.564L55.5206 32.7929C55.7684 33.0232 55.883 33.3631 55.8251 33.6965C55.7672 34.0298 55.5448 34.3113 55.2338 34.4445L47.9184 37.5797C47.6669 37.6875 47.3821 37.6875 47.1306 37.5797L39.8151 34.4445C39.5046 34.3114 39.2822 34.0305 39.224 33.6977C39.1658 33.3648 39.2796 33.0251 39.5266 32.7945ZM20.5564 43.2291L28.5324 35.5978L29.9151 37.0429L23.7394 42.9517H26.3718L30.0836 39.9204L31.3487 41.4695L27.3607 44.7262C27.1822 44.872 26.9587 44.9517 26.7282 44.9517H21.2477C20.8392 44.9517 20.4718 44.7032 20.3197 44.3241C20.1675 43.945 20.2613 43.5115 20.5564 43.2291ZM66.834 35.9374L74.4674 43.2285C74.7629 43.5108 74.8569 43.9444 74.7049 44.3237C74.5529 44.703 74.1853 44.9517 73.7767 44.9517H68.2963C68.0656 44.9517 67.842 44.8719 67.6634 44.726L63.7977 41.5665L65.0634 40.0179L68.653 42.9517H71.2819L65.4525 37.3837L66.834 35.9374ZM31.4506 38.8519L33.8972 36.0084L35.4133 37.3128L33.599 39.4213L35.2884 40.9682L45.4948 38.1276L46.0311 40.0543L35.2903 43.0437C34.958 43.1362 34.6014 43.0508 34.3469 42.8178L31.5333 40.2416C31.1348 39.8768 31.0982 39.2614 31.4506 38.8519ZM61.1517 36.0084L63.5983 38.8519C63.9507 39.2614 63.9141 39.8768 63.5156 40.2416L60.702 42.8178C60.4475 43.0508 60.0909 43.1362 59.7586 43.0437L49.0179 40.0543L49.5541 38.1276L59.7605 40.9682L61.4499 39.4213L59.6356 37.3128L61.1517 36.0084ZM58.6589 47.4194L57.1665 44.2843L58.9723 43.4246L60.2445 46.0971L69.8163 47.8334V46.1876H71.8163V49.0311C71.8163 49.3276 71.6848 49.6088 71.4572 49.7988C71.2296 49.9888 70.9295 50.068 70.6378 50.0151L59.3833 47.9736C59.0668 47.9161 58.7972 47.7099 58.6589 47.4194ZM38.5903 46.0838L39.0528 44.1612L37.1082 43.6935L36.4477 46.4398C36.3333 46.9152 36.5795 47.4035 37.0296 47.5943L47.0607 51.8475C47.3105 51.9534 47.5927 51.9533 47.8424 51.847L56.528 48.1529L55.7452 46.3124L47.4504 49.8404L38.5903 46.0838ZM23.2326 49.0311V45.7987H25.2326V47.8334L35.3086 46.0057L35.6656 47.9736L24.4111 50.0151C24.1194 50.068 23.8193 49.9888 23.5917 49.7988C23.3641 49.6088 23.2326 49.3276 23.2326 49.0311ZM27.2621 53.6076L28.9259 49.2572L30.7939 49.9716L29.3406 53.7716L33.5046 58.719L45.7438 54.3357L46.4181 56.2186L33.5244 60.8363C33.1309 60.9772 32.6913 60.8586 32.4222 60.5388L27.431 54.6087C27.1969 54.3305 27.1322 53.9472 27.2621 53.6076ZM19.1045 53.5196L21.0618 49.5824L22.8527 50.4727L21.0475 54.1041L21.2356 55.0473L26.1742 52.5159L27.0865 54.2957L20.9699 57.4309C20.6909 57.5739 20.361 57.5778 20.0787 57.4413C19.7964 57.3049 19.5944 57.044 19.5331 56.7365L19.0193 54.1604C18.976 53.9432 19.006 53.7179 19.1045 53.5196ZM67.487 53.8758L65.9211 50.9351L67.6865 49.9951L69.1049 52.659L73.7644 55.0473L73.9523 54.1051L72.5396 51.2764L74.3288 50.3828L75.8946 53.518C75.9938 53.7166 76.0241 53.9426 75.9807 54.1604L75.4669 56.7365C75.4056 57.044 75.2036 57.3049 74.9213 57.4413C74.639 57.5778 74.3091 57.5739 74.0301 57.4309L67.9135 54.2957C67.7318 54.2026 67.583 54.056 67.487 53.8758ZM67.1779 55.0942L62.6027 60.5382C62.3335 60.8586 61.8933 60.9774 61.4994 60.8361L49.511 56.5344L50.1865 54.6519L61.5196 58.7185L65.6468 53.8075L67.1779 55.0942ZM22.2031 59.5919L23.0839 56.8213L24.9899 57.4272L24.2377 59.7934L26.2478 63.5181L34.4357 62.3081L34.728 64.2866L25.8468 65.599C25.4306 65.6605 25.0204 65.455 24.8206 65.0847L22.2761 60.3698C22.1473 60.1311 22.1209 59.8504 22.2031 59.5919ZM72.0119 57.1794L72.7948 59.5855C72.8588 59.7824 72.8602 59.9944 72.7986 60.1921L71.3307 64.907C71.186 65.3717 70.7278 65.6648 70.2453 65.6012L60.2875 64.2888L60.5488 62.306L69.6715 63.5083L70.7944 59.9016L70.11 57.7982L72.0119 57.1794ZM57.6051 59.6952L58.462 63.8997C58.5416 64.2899 58.382 64.6901 58.0558 64.9186L48.0246 71.9423C47.6802 72.1834 47.2218 72.1834 46.8775 71.9423L36.8464 64.9186C36.517 64.688 36.3578 64.2826 36.4422 63.8895L37.2979 59.9037L39.2533 60.3235L38.5369 63.6607L47.451 69.9024L56.3713 63.6564L55.6454 60.0946L57.6051 59.6952ZM24.1536 73.6817L22.7346 65.7831L24.7031 65.4294L26.1221 73.3281L24.1536 73.6817ZM35.7058 78.8942L27.999 67.277L29.6656 66.1714L36.7993 76.9247L43.8593 71.8657L45.0242 73.4914L37.1216 79.1542C36.9009 79.3123 36.6255 79.3739 36.3585 79.3249C36.0915 79.2759 35.8559 79.1204 35.7058 78.8942ZM65.7794 70.7787L59.1911 78.9682C58.8586 79.3814 58.2614 79.4632 57.83 79.1546L49.6094 73.2731L50.7732 71.6466L58.2252 76.9781L66.6853 66.4619L68.2436 67.7156L65.8542 70.6857H67.7794V75.2305C67.7794 75.3477 67.7588 75.4639 67.7185 75.574L64.856 83.3998C64.7374 83.7238 64.4602 83.9639 64.1225 84.0349C63.7848 84.1059 63.4344 83.9977 63.1954 83.7488L59.6723 80.0789L61.115 78.6939L63.5282 81.2076L65.7794 75.0533V70.7787ZM72.2114 66.9512L70.7679 73.9263L68.8094 73.521L70.2529 66.5458L72.2114 66.9512ZM27.1717 75.2305V70.6857H29.1717V75.0533L31.4228 81.2075L33.836 78.6939L35.2787 80.0789L31.7556 83.7488C31.5166 83.9977 31.1662 84.1059 30.8285 84.0349C30.4908 83.9639 30.2136 83.7238 30.0951 83.3998L27.2326 75.574C27.1923 75.4639 27.1717 75.3477 27.1717 75.2305ZM55.4603 79.8392L48.1693 86.863C47.782 87.2361 47.169 87.2361 46.7817 86.863L39.4908 79.8392L40.8784 78.3989L47.4755 84.7543L54.0727 78.3989L55.4603 79.8392ZM33.8906 87.9934L33.1322 83.6917L35.1018 83.3444L35.7849 87.219L41.144 90.7138L44.5582 87.2183L45.9889 88.6157L42.0009 92.6987C41.6674 93.0402 41.1391 93.0984 40.7393 92.8376L34.3292 88.6574C34.0974 88.5063 33.9387 88.2659 33.8906 87.9934ZM61.8433 83.6917L61.0849 87.9934C61.0369 88.2659 60.8781 88.5063 60.6463 88.6574L54.2362 92.8376C53.8363 93.0984 53.3079 93.0402 52.9744 92.6986L49.0353 88.6642L50.4664 87.267L53.8317 90.7137L59.1906 87.219L59.8737 83.3444L61.8433 83.6917Z" fill="currentColor"/>
</svg>
