<svg width="96" height="96" viewBox="0 0 96 96" fill="none" xmlns="http://www.w3.org/2000/svg">
<path d="M76 47.5797C75.9975 40.2825 73.1429 33.2754 68.0455 28.0538C63.1758 23.0654 56.6274 20.0843 49.6917 19.6727C49.1499 19.6405 48.7165 19.1988 48.7165 18.656V14.6996C48.7165 14.3132 48.4033 14 48.0169 14C47.6305 14 47.3173 14.3132 47.3173 14.6996V18.6544C47.3173 19.1978 46.883 19.6399 46.3405 19.6712C39.3982 20.0726 32.8407 23.0496 27.9637 28.0393C22.8584 33.2623 20 40.276 20 47.5797C20 54.8833 22.8584 61.897 27.9637 67.1203C32.8407 72.1099 39.3982 75.0869 46.3405 75.4882C46.883 75.5196 47.3173 75.9616 47.3173 76.505V80.4599C47.3173 80.8462 47.6305 81.1594 48.0169 81.1594C48.4033 81.1594 48.7165 80.8462 48.7165 80.4599V76.5035C48.7165 75.9607 49.1499 75.5189 49.6917 75.4867C56.6274 75.0752 63.1755 72.0939 68.0452 67.1055C73.1429 61.8841 75.9975 54.8769 76 47.5797ZM74.5195 45.8556C74.5555 46.4166 74.1019 46.8801 73.5398 46.8801H49.7165C49.1642 46.8801 48.7165 46.4324 48.7165 45.8801V34.5882C48.7165 34.0359 49.1642 33.5882 49.7165 33.5882H70.0234C70.3685 33.5882 70.6905 33.7655 70.867 34.0621C73.0015 37.6508 74.2524 41.6932 74.5195 45.8556ZM48.7165 49.2793C48.7165 48.727 49.1642 48.2793 49.7165 48.2793H73.5398C74.1019 48.2793 74.5555 48.7428 74.5195 49.3038C74.2524 53.4662 73.0015 57.5086 70.867 61.0973C70.6905 61.394 70.3685 61.5713 70.0234 61.5713H49.7165C49.1642 61.5713 48.7165 61.1236 48.7165 60.5713V49.2793ZM68.4731 30.6521C68.9906 31.2782 68.5268 32.189 67.7145 32.189H49.7165C49.1642 32.189 48.7165 31.7413 48.7165 31.189V22.0577C48.7165 21.4951 49.1807 21.0414 49.7421 21.0779C53.5011 21.3227 57.1692 22.3652 60.5002 24.1406C63.5628 25.7729 66.27 27.9869 68.4731 30.6521ZM21.433 47.5797C21.4435 40.656 24.1533 34.0092 28.9867 29.0517C33.5806 24.34 39.7486 21.5072 46.2911 21.0784C46.8527 21.0416 47.3173 21.4955 47.3173 22.0583V73.1012C47.3173 73.664 46.8527 74.1178 46.2911 74.081C39.7486 73.6523 33.5806 70.8194 28.9867 66.1076C24.1533 61.1501 21.4435 54.5036 21.433 47.5797ZM49.742 74.0816C49.1806 74.1181 48.7165 73.6643 48.7165 73.1017V63.9704C48.7165 63.4181 49.1642 62.9704 49.7165 62.9704H67.7145C68.5267 62.9704 68.9905 63.8813 68.4731 64.5073C66.27 67.1725 63.5628 69.3866 60.5002 71.0189C57.1692 72.7942 53.5011 73.8369 49.742 74.0816Z" fill="currentColor"/>
<path fill-rule="evenodd" clip-rule="evenodd" d="M46.8173 14.6996C46.8173 14.0371 47.3544 13.5 48.0169 13.5C48.6794 13.5 49.2165 14.0371 49.2165 14.6996V18.656C49.2165 18.923 49.4324 19.1564 49.7213 19.1736C56.781 19.5925 63.4465 22.627 68.4033 27.7045C73.5918 33.0195 76.4974 40.1519 76.5 47.5795C76.4974 55.0072 73.5919 62.14 68.403 67.4548C63.4462 72.5324 56.781 75.567 49.7213 75.9859C49.4324 76.003 49.2165 76.2364 49.2165 76.5035V80.4599C49.2165 81.1224 48.6794 81.6594 48.0169 81.6594C47.3544 81.6594 46.8173 81.1224 46.8173 80.4599V76.505C46.8173 76.2377 46.6009 76.0041 46.3116 75.9874C39.2452 75.5789 32.5704 72.5487 27.6061 67.4698C22.4095 62.1531 19.5 55.0139 19.5 47.5797C19.5 40.1454 22.4095 33.0063 27.6061 27.6898C32.5704 22.6109 39.2452 19.5807 46.3117 19.1721C46.6009 19.1554 46.8173 18.9217 46.8173 18.6544V14.6996ZM48.0169 14.5C47.9067 14.5 47.8173 14.5894 47.8173 14.6996V18.6544C47.8173 19.4739 47.1651 20.1244 46.3694 20.1704C39.5513 20.5646 33.111 23.4884 28.3212 28.3888C23.3073 33.5184 20.5 40.4067 20.5 47.5797C20.5 54.7527 23.3073 61.6409 28.3212 66.7708C33.111 71.6712 39.5513 74.5949 46.3694 74.989C47.1651 75.035 47.8173 75.6855 47.8173 76.505V80.4599C47.8173 80.5701 47.9067 80.6594 48.0169 80.6594C48.1271 80.6594 48.2165 80.5701 48.2165 80.4599V76.5035C48.2165 75.6849 48.8673 75.0348 49.6621 74.9876C56.4737 74.5834 62.9048 71.6554 67.6875 66.7562C72.694 61.6283 75.4975 54.7464 75.5 47.5797C75.4975 40.4131 72.694 33.5313 67.6877 28.4031C62.9051 23.5039 56.4737 20.576 49.6621 20.1718C48.8673 20.1247 48.2165 19.4745 48.2165 18.656V14.6996C48.2165 14.5894 48.1271 14.5 48.0169 14.5ZM49.7096 21.5769C49.4493 21.5599 49.2165 21.771 49.2165 22.0577V31.189C49.2165 31.4652 49.4403 31.689 49.7165 31.689H67.7145C68.1402 31.689 68.3128 31.243 68.0877 30.9707C65.9261 28.3557 63.2699 26.1834 60.265 24.5819C56.9968 22.8399 53.3978 21.817 49.7096 21.5769ZM48.2165 22.0577C48.2165 21.2192 48.912 20.5228 49.7746 20.579C53.6044 20.8283 57.3416 21.8905 60.7353 23.6994C63.8557 25.3624 66.6138 27.6181 68.8585 30.3336C69.6684 31.3134 68.9133 32.689 67.7145 32.689H49.7165C48.8881 32.689 48.2165 32.0174 48.2165 31.189V22.0577ZM46.8173 22.0583C46.8173 21.7716 46.5843 21.5603 46.3238 21.5774C39.9043 21.9981 33.8522 24.7776 29.3447 29.4008C24.6023 34.2649 21.9435 40.7864 21.933 47.5797C21.9435 54.3731 24.6023 60.8944 29.3447 65.7586C33.8523 70.3818 39.9043 73.1614 46.3238 73.5821C46.5843 73.5992 46.8173 73.3879 46.8173 73.1012V22.0583ZM46.2584 20.5795C47.1211 20.523 47.8173 21.2193 47.8173 22.0583V73.1012C47.8173 73.9401 47.1211 74.6365 46.2584 74.58C39.5929 74.1432 33.309 71.257 28.6287 66.4567C23.7044 61.406 20.9436 54.6345 20.933 47.5805V47.579C20.9436 40.5251 23.7044 33.7533 28.6287 28.7027C33.309 23.9023 39.5929 21.0163 46.2584 20.5795ZM49.7165 34.0882C49.4403 34.0882 49.2165 34.312 49.2165 34.5882V45.8801C49.2165 46.1563 49.4403 46.3801 49.7165 46.3801H73.5398C73.8263 46.3801 74.0373 46.1476 74.0206 45.8877C73.7585 41.8042 72.5313 37.8383 70.4372 34.3177C70.3539 34.1776 70.1981 34.0882 70.0234 34.0882H49.7165ZM48.2165 34.5882C48.2165 33.7597 48.8881 33.0882 49.7165 33.0882H70.0234C70.539 33.0882 71.0272 33.3534 71.2967 33.8065C73.4716 37.4632 74.7463 41.5823 75.0185 45.8236C75.0738 46.6857 74.3776 47.3801 73.5398 47.3801H49.7165C48.8881 47.3801 48.2165 46.7086 48.2165 45.8801V34.5882ZM48.2165 49.2793C48.2165 48.4509 48.8881 47.7793 49.7165 47.7793H73.5398C74.3776 47.7793 75.0738 48.4738 75.0185 49.3358C74.7463 53.5771 73.4716 57.6962 71.2967 61.3529C71.0272 61.8061 70.539 62.0713 70.0234 62.0713H49.7165C48.8881 62.0713 48.2165 61.3997 48.2165 60.5713V49.2793ZM49.7165 48.7793C49.4403 48.7793 49.2165 49.0032 49.2165 49.2793V60.5713C49.2165 60.8474 49.4403 61.0713 49.7165 61.0713H70.0234C70.1981 61.0713 70.3539 60.9819 70.4372 60.8417C72.5313 57.321 73.7585 53.3552 74.0206 49.2718C74.0373 49.0118 73.8263 48.7793 73.5398 48.7793H49.7165ZM49.7165 63.4704C49.4403 63.4704 49.2165 63.6943 49.2165 63.9704V73.1017C49.2165 73.3885 49.4493 73.5996 49.7096 73.5826C53.3978 73.3426 56.9967 72.3195 60.265 70.5777C63.2699 68.9761 65.9261 66.8037 68.0877 64.1887C68.3127 63.9165 68.1402 63.4704 67.7145 63.4704H49.7165ZM48.2165 63.9704C48.2165 63.142 48.8881 62.4704 49.7165 62.4704H67.7145C68.9133 62.4704 69.6684 63.8461 68.8584 64.8259C66.6138 67.5413 63.8557 69.797 60.7353 71.4602C57.3416 73.2689 53.6044 74.3312 49.7745 74.5805C48.912 74.6366 48.2165 73.9402 48.2165 73.1017V63.9704Z" fill="currentColor"/>
</svg>
