<svg width="96" height="96" viewBox="0 0 96 96" fill="none" xmlns="http://www.w3.org/2000/svg">
<rect width="96" height="96" rx="48" fill="#F7F4EF"/>
<path d="M18 28C16.8954 28 16 28.8954 16 30V66.7273C16 67.8318 16.8954 68.7273 18 68.7273H78C79.1046 68.7273 80 67.8318 80 66.7273V30C80 28.8954 79.1046 28 78 28H18ZM78.5455 65.2727C78.5455 66.3773 77.65 67.2727 76.5455 67.2727H19.4545C18.35 67.2727 17.4545 66.3773 17.4545 65.2727V31.4545C17.4545 30.35 18.35 29.4545 19.4545 29.4545H76.5455C77.65 29.4545 78.5455 30.35 78.5455 31.4545V65.2727ZM43.0792 57.0909C43.3438 57.0909 43.5895 56.9539 43.7286 56.7288L53.5702 40.801C53.8844 40.2924 53.5186 39.6364 52.9208 39.6364V39.6364C52.6562 39.6364 52.4105 39.7734 52.2714 39.9985L42.4298 55.9263C42.1156 56.4349 42.4814 57.0909 43.0792 57.0909V57.0909ZM50.3747 54.0963C50.3747 54.7485 50.5681 55.3862 50.9303 55.9284C51.2928 56.4707 51.8077 56.8934 52.4105 57.143C53.0129 57.3926 53.6759 57.458 54.3156 57.3306C54.9553 57.2035 55.543 56.8893 56.0041 56.4282C56.4655 55.9671 56.7796 55.3795 56.9068 54.7398C57.0342 54.1001 56.9687 53.4371 56.7191 52.8346C56.4698 52.2319 56.0471 51.7169 55.5049 51.3545C54.9626 50.992 54.3249 50.7985 53.6727 50.7985C53.2396 50.7985 52.8108 50.8838 52.4108 51.0496C52.0105 51.2151 51.6468 51.458 51.3408 51.7644C51.0345 52.0707 50.7916 52.434 50.6257 52.8343C50.4599 53.2343 50.3747 53.6631 50.3747 54.0963ZM55.5153 54.0963C55.5153 54.4608 55.4071 54.8172 55.2047 55.1203C55.0022 55.4234 54.7142 55.6596 54.3776 55.7993C54.0407 55.9386 53.6701 55.9753 53.3126 55.904C52.9551 55.833 52.6266 55.6573 52.3689 55.3996C52.1111 55.1418 51.9354 54.8134 51.8644 54.4559C51.7932 54.0983 51.8298 53.7277 51.9692 53.3908C52.1088 53.0543 52.345 52.7663 52.6481 52.5638C52.9513 52.3613 53.3076 52.2531 53.6721 52.2531C54.1609 52.2537 54.6292 52.448 54.9748 52.7936C55.3204 53.1392 55.5148 53.6076 55.5153 54.0963ZM42.3273 45.9284C42.9795 45.9284 43.6172 45.735 44.1594 45.3725C44.7017 45.0103 45.1244 44.4951 45.374 43.8927C45.6236 43.2899 45.689 42.6269 45.5616 41.9872C45.4345 41.3475 45.1203 40.7599 44.6589 40.2987C44.1978 39.8376 43.6102 39.5235 42.9705 39.3963C42.3308 39.2691 41.6677 39.3344 41.0651 39.5841C40.4625 39.8337 39.9475 40.2564 39.5852 40.7988C39.2228 41.3411 39.0295 41.9787 39.0295 42.631C39.0296 43.5055 39.3771 44.3441 39.9955 44.9626C40.614 45.5811 41.4527 45.9284 42.3273 45.9284ZM42.3273 40.7878C42.6918 40.7878 43.0481 40.8959 43.3513 41.0984C43.6544 41.3009 43.8906 41.5888 44.0303 41.9256C44.1696 42.2624 44.2063 42.633 44.135 42.9905C44.064 43.3481 43.8883 43.6765 43.6305 43.9343C43.3728 44.192 43.0444 44.3677 42.6868 44.4387C42.3293 44.51 41.9587 44.4733 41.6219 44.334C41.2851 44.1943 40.9972 43.9581 40.7947 43.655C40.5922 43.3519 40.4841 42.9955 40.4841 42.631C40.4846 42.1423 40.679 41.6738 41.0245 41.3282C41.3701 40.9827 41.8386 40.7883 42.3273 40.7878Z" fill="#9C7C56" stroke="#9C7C56" stroke-width="0.5"/>
</svg>
