<svg width="96" height="96" viewBox="0 0 96 96" fill="none" xmlns="http://www.w3.org/2000/svg">
<path d="M59.1109 16.5858C58.7358 16.2107 58.2271 16 57.6967 16H24C22.8954 16 22 16.8954 22 18V78C22 79.1046 22.8954 80 24 80H71.2C72.3046 80 73.2 79.1046 73.2 78V31.5033C73.2 30.9729 72.9893 30.4642 72.6142 30.0891L59.1109 16.5858ZM71.6 76.4C71.6 77.5046 70.7046 78.4 69.6 78.4H25.6C24.4954 78.4 23.6 77.5046 23.6 76.4V19.6C23.6 18.4954 24.4954 17.6 25.6 17.6H57.034C57.5644 17.6 58.0731 17.8107 58.4482 18.1858L71.0142 30.7518C71.3893 31.1269 71.6 31.6356 71.6 32.166V76.4ZM34.8 60C34.8 60.4418 35.1582 60.8 35.6 60.8C36.0418 60.8 36.4 60.4418 36.4 60V48.8C36.4 48.3582 36.0418 48 35.6 48C35.1582 48 34.8 48.3582 34.8 48.8V60ZM50.8 60C50.8 60.4418 51.1582 60.8 51.6 60.8C52.0418 60.8 52.4 60.4418 52.4 60V48.8C52.4 48.3582 52.0418 48 51.6 48C51.1582 48 50.8 48.3582 50.8 48.8V60ZM60.4 42.4C60.4 41.9582 60.0418 41.6 59.6 41.6C59.1582 41.6 58.8 41.9582 58.8 42.4V60C58.8 60.4418 59.1582 60.8 59.6 60.8C60.0418 60.8 60.4 60.4418 60.4 60V42.4ZM42.8 60C42.8 60.4418 43.1582 60.8 43.6 60.8C44.0418 60.8 44.4 60.4418 44.4 60V36C44.4 35.5582 44.0418 35.2 43.6 35.2C43.1582 35.2 42.8 35.5582 42.8 36V60Z" fill="#9C7C56" stroke="currentColor"/>
</svg>
