<svg width="40" height="40" viewBox="0 0 40 40" fill="none" xmlns="http://www.w3.org/2000/svg">
<path d="M16.7489 21.2476H12.5V16.8592H16.7489H17.2489V16.3592V12.2524C17.2489 10.0171 17.9145 8.34315 19.0317 7.22849C20.1495 6.11314 21.7773 5.5 23.8137 5.5C24.81 5.5 25.8357 5.58887 26.6168 5.67876C26.9728 5.71973 27.2761 5.76069 27.5 5.79302V9.45146H25.6402C24.3703 9.45146 23.4557 9.84888 22.8678 10.5274C22.2915 11.1925 22.0936 12.054 22.0936 12.8641V16.3592V16.8592H22.5936H27.198L26.5227 21.2476H22.5936H22.0936V21.7476V34.3414C21.3008 34.4464 20.4926 34.5 19.6712 34.5C18.8498 34.5 18.0417 34.4464 17.2489 34.3414V21.7476V21.2476H16.7489Z" stroke="currentColor"/>
</svg>
