<svg width="82" height="82" viewBox="0 0 82 82" fill="none" xmlns="http://www.w3.org/2000/svg">
<path d="M19.9082 6.728C20.2649 5.98352 21.0424 5.53467 21.8654 5.59802L24.2794 5.78383C24.9522 5.83562 25.6058 5.54463 26.0175 5.00998L27.4947 3.09171C27.9984 2.43765 28.8521 2.16025 29.644 2.39334L31.9666 3.07699C32.614 3.26753 33.3138 3.11879 33.8277 2.68142L35.6714 1.1122C36.3 0.57715 37.1928 0.483314 37.919 0.875965L40.0487 2.02756C40.6422 2.34853 41.3577 2.34853 41.9513 2.02756L44.081 0.875962C44.8071 0.483313 45.6999 0.577147 46.3285 1.11219L48.1723 2.68142C48.6862 3.11879 49.3859 3.26753 50.0333 3.07699L52.3559 2.39335C53.1478 2.16025 54.0016 2.43766 54.5052 3.09171L55.9824 5.00998C56.3941 5.54463 57.0477 5.83562 57.7205 5.78383L60.1345 5.59802C60.9576 5.53467 61.735 5.98352 62.0917 6.728L63.1377 8.91147C63.4293 9.52004 64.0081 9.94056 64.677 10.0298L67.0768 10.3499C67.8951 10.4591 68.5622 11.0598 68.7563 11.8621L69.3255 14.2154C69.4842 14.8713 69.9629 15.4029 70.5986 15.6293L72.8795 16.4414C73.6572 16.7183 74.1848 17.4446 74.2079 18.2697L74.2754 20.6899C74.2942 21.3645 74.6519 21.984 75.2267 22.3376L77.2889 23.6062C77.992 24.0387 78.3571 24.8588 78.2081 25.6708L77.7709 28.0521C77.6491 28.7158 77.8702 29.3962 78.3589 29.8616L80.1122 31.5312C80.7101 32.1004 80.8967 32.9785 80.5821 33.7417L79.6594 35.9802C79.4023 36.604 79.477 37.3155 79.8583 37.8723L81.2262 39.87C81.6926 40.5511 81.6926 41.4488 81.2262 42.1299L79.8583 44.1276C79.477 44.6844 79.4023 45.3959 79.6594 46.0198L80.5821 48.2582C80.8967 49.0214 80.71 49.8995 80.1122 50.4688L78.3589 52.1384C77.8702 52.6037 77.6491 53.2841 77.7709 53.9478L78.2081 56.3292C78.3571 57.1411 77.992 57.9612 77.2889 58.3937L75.2267 59.6623C74.6519 60.0159 74.2942 60.6355 74.2754 61.31L74.2079 63.7302C74.1848 64.5554 73.6572 65.2816 72.8795 65.5585L70.5986 66.3706C69.9629 66.597 69.4842 67.1286 69.3256 67.7845L68.7563 70.1378C68.5622 70.9401 67.8951 71.5408 67.0768 71.65L64.677 71.9701C64.0081 72.0594 63.4293 72.4799 63.1378 73.0885L62.0917 75.2719C61.735 76.0164 60.9576 76.4653 60.1345 76.4019L57.7205 76.2161C57.0477 76.1643 56.3941 76.4553 55.9824 76.9899L54.5052 78.9082C54.0016 79.5623 53.1478 79.8397 52.3559 79.6066L50.0333 78.9229C49.3859 78.7324 48.6861 78.8811 48.1723 79.3185L46.3285 80.8877C45.6999 81.4228 44.8071 81.5166 44.081 81.124L41.9513 79.9724C41.3577 79.6514 40.6423 79.6514 40.0487 79.9724L37.919 81.124C37.1928 81.5166 36.3 81.4228 35.6714 80.8877L33.8277 79.3185C33.3138 78.8811 32.614 78.7324 31.9666 78.9229L29.644 79.6066C28.8521 79.8397 27.9984 79.5623 27.4947 78.9082L26.0175 76.9899C25.6058 76.4553 24.9522 76.1643 24.2794 76.2161L21.8654 76.4019C21.0424 76.4653 20.2649 76.0164 19.9082 75.2719L18.8622 73.0885C18.5706 72.4799 17.9918 72.0594 17.3229 71.9701L14.9231 71.65C14.1048 71.5408 13.4377 70.9402 13.2436 70.1378L12.6744 67.7845C12.5157 67.1286 12.037 66.597 11.4013 66.3706L9.12043 65.5585C8.34275 65.2816 7.81509 64.5554 7.79206 63.7302L7.72452 61.31C7.7057 60.6355 7.34799 60.0159 6.77323 59.6623L4.71106 58.3937C4.00794 57.9612 3.64281 57.1411 3.79186 56.3292L4.22898 53.9478C4.35081 53.2841 4.12973 52.6037 3.64104 52.1384L1.88769 50.4688C1.28987 49.8995 1.10322 49.0214 1.41782 48.2582L2.3405 46.0198C2.59766 45.3959 2.52288 44.6844 2.14162 44.1276L0.773716 42.1299C0.307313 41.4488 0.307312 40.5511 0.773716 39.87L2.14162 37.8723C2.52288 37.3155 2.59766 36.604 2.3405 35.9802L1.41782 33.7417C1.10322 32.9785 1.28987 32.1004 1.88769 31.5312L3.64104 29.8616C4.12973 29.3962 4.35081 28.7158 4.22898 28.0521L3.79185 25.6708C3.64281 24.8588 4.00794 24.0387 4.71106 23.6062L6.77323 22.3376C7.34799 21.984 7.7057 21.3645 7.72452 20.6899L7.79206 18.2697C7.81509 17.4446 8.34274 16.7183 9.12043 16.4414L11.4013 15.6293C12.037 15.4029 12.5157 14.8713 12.6744 14.2154L13.2436 11.8621C13.4377 11.0598 14.1048 10.4591 14.9231 10.3499L17.3229 10.0298C17.9918 9.94056 18.5706 9.52004 18.8622 8.91147L19.9082 6.728Z" fill="#9C7C56"/>
<path d="M15.2262 44H17.0062C18.3162 44 19.1662 43.25 19.1662 41.98C19.1662 40.27 17.6862 40.1 16.8662 40.1H15.9662V38.03H18.5362V37.33H15.2262V44ZM15.9662 40.8H16.7462C17.1562 40.8 17.5562 40.8 17.8662 40.97C18.3262 41.22 18.4062 41.66 18.4062 41.98C18.4062 42.46 18.2362 42.76 18.0562 42.93C17.6762 43.3 17.1262 43.3 16.8262 43.3H15.9662V40.8ZM23.9889 37.33H20.5289V44H23.9889V43.3H21.2689V40.71H23.9089V40.01H21.2689V38.03H23.9889V37.33ZM30.4532 37.88C29.6532 37.27 28.8832 37.22 28.4832 37.22C26.4832 37.22 24.9932 38.7 24.9932 40.69C24.9932 42.62 26.4632 44.12 28.4432 44.12C28.9432 44.12 29.7132 44 30.4532 43.47V42.55C30.3332 42.67 30.0632 42.92 29.6832 43.11C29.3332 43.29 28.8932 43.42 28.4432 43.42C27.2232 43.42 25.7532 42.51 25.7532 40.7C25.7532 39.16 26.8932 37.92 28.4332 37.92C28.8232 37.92 29.2332 38.02 29.5832 38.18C29.9232 38.34 30.2432 38.59 30.4532 38.8V37.88ZM31.818 37.33V44H32.558V38.03H35.978V44H36.718V37.33H31.818ZM39.1191 37.33V41.31C39.1191 41.99 39.1291 42.71 38.7391 43.1C38.6091 43.23 38.3891 43.36 38.0891 43.36C37.9491 43.36 37.8191 43.33 37.7191 43.3V44C37.9191 44.05 38.0691 44.06 38.1191 44.06C38.5591 44.06 38.9691 43.92 39.2591 43.66C39.8891 43.09 39.8591 42.21 39.8591 41.61V38.03H42.4391V44H43.1791V37.33H39.1191ZM49.3639 44H50.1839L47.1939 37.01L44.1239 44H44.9439L45.7439 42.12H48.5839L49.3639 44ZM46.0339 41.42L47.1739 38.75L48.2939 41.42H46.0339ZM53.9354 38.03V37.33H49.9554V38.03H51.5754V44H52.3154V38.03H53.9354ZM55.6732 37.33H54.9332V44H55.6732V40.74H59.0932V44H59.8332V37.33H59.0932V40.04H55.6732V37.33ZM64.6643 44.12C66.5943 44.12 68.1343 42.65 68.1343 40.67C68.1343 38.68 66.5843 37.22 64.6643 37.22C62.7443 37.22 61.1943 38.68 61.1943 40.67C61.1943 42.65 62.7343 44.12 64.6643 44.12ZM64.6643 37.92C66.1643 37.92 67.3743 39.14 67.3743 40.67C67.3743 42.2 66.1643 43.42 64.6643 43.42C63.1643 43.42 61.9543 42.2 61.9543 40.67C61.9543 39.14 63.1643 37.92 64.6643 37.92Z" fill="white"/>
</svg>
