<svg width="25" height="25" viewBox="0 0 25 25" fill="none" xmlns="http://www.w3.org/2000/svg">
<path d="M12.4967 15.4156C10.8856 15.4156 9.58007 14.1097 9.58007 12.4983C9.58007 10.8869 10.8856 9.58107 12.4967 9.58107C14.1078 9.58107 15.4134 10.8869 15.4134 12.4983C15.4134 14.1097 14.1078 15.4156 12.4967 15.4156Z" fill="currentColor"/>
<path fill-rule="evenodd" clip-rule="evenodd" d="M12.4965 3.75C10.1215 3.75 9.82292 3.76042 8.88889 3.80209C7.95833 3.84377 7.32292 3.9931 6.76736 4.20842C6.19097 4.43069 5.70486 4.73283 5.21875 5.21904C4.73264 5.70525 4.43403 6.19493 4.20833 6.76796C3.99306 7.32363 3.84375 7.95917 3.80208 8.89338C3.76042 9.82412 3.75 10.1228 3.75 12.4983C3.75 14.8737 3.76042 15.1724 3.80208 16.1066C3.84375 17.0374 3.99306 17.6729 4.20833 18.232C4.43056 18.8085 4.73264 19.2948 5.21875 19.781C5.70486 20.2672 6.19444 20.5658 6.76736 20.7916C7.32292 21.0069 7.95833 21.1562 8.89236 21.1979C9.82639 21.2396 10.1215 21.25 12.5 21.25C14.8785 21.25 15.1736 21.2396 16.1076 21.1979C17.0382 21.1562 17.6736 21.0069 18.2326 20.7916C18.809 20.5693 19.2951 20.2672 19.7813 19.781C20.2674 19.2948 20.566 18.8051 20.7917 18.232C21.0069 17.6764 21.1562 17.0408 21.1979 16.1066C21.2396 15.1724 21.25 14.8772 21.25 12.4983C21.25 10.1193 21.2396 9.82412 21.1979 8.88991C21.1562 7.95917 21.0069 7.32363 20.7917 6.76449C20.5694 6.18798 20.2674 5.70178 19.7813 5.21557C19.2951 4.72936 18.8056 4.43069 18.2326 4.20495C17.6771 3.98963 17.0417 3.8403 16.1076 3.79862C15.1701 3.76042 14.8715 3.75 12.4965 3.75ZM12.4967 8.00784C10.0176 8.00784 8.00368 10.0187 8.00368 12.5018C8.00368 14.9849 10.0141 16.9957 12.4967 16.9957C14.9794 16.9957 16.9898 14.9849 16.9898 12.5018C16.9898 10.0187 14.9794 8.00784 12.4967 8.00784ZM18.2153 7.82718C18.2153 8.40643 17.7459 8.876 17.1667 8.876C16.5876 8.876 16.1181 8.40643 16.1181 7.82718C16.1181 7.24793 16.5876 6.77836 17.1667 6.77836C17.7459 6.77836 18.2153 7.24793 18.2153 7.82718Z" fill="currentColor"/>
</svg>
