<svg width="40" height="40" viewBox="0 0 40 40" fill="none" xmlns="http://www.w3.org/2000/svg">
<path d="M11.0085 7.19969L11.0077 7.2C10.1482 7.53144 9.43018 7.97725 8.70359 8.70398C7.97911 9.42861 7.53738 10.1521 7.19906 11.0107C6.87652 11.8436 6.64731 12.806 6.58284 14.2517L6.58283 14.2518C6.51666 15.7299 6.5 16.1991 6.5 19.9972C6.5 23.7953 6.51666 24.2646 6.58283 25.7482L11.0085 7.19969ZM11.0085 7.19969C11.8416 6.87679 12.8041 6.64737 14.2445 6.58285L11.0085 7.19969ZM19.9944 6.5C16.1972 6.5 15.7279 6.51666 14.2446 6.58285L19.9944 6.5ZM19.9944 6.5C23.7908 6.5 24.2615 6.51665 25.7509 6.57734C27.1957 6.64188 28.1576 6.87109 28.9902 7.1936C29.8486 7.53198 30.5719 7.97379 31.2964 8.69843C32.023 9.42512 32.4687 10.1432 32.8001 11.0028M19.9944 6.5L32.8001 11.0028M7.19987 28.9914C7.53126 29.8511 7.97699 30.5693 8.70359 31.296C9.428 32.0206 10.1513 32.4624 11.0095 32.8007C11.8423 33.1234 12.8046 33.3527 14.2501 33.4171C15.7335 33.4833 16.1971 33.5 20 33.5C23.8028 33.5 24.2665 33.4833 25.7499 33.4172L7.19987 28.9914ZM7.19987 28.9914C6.87664 28.1518 6.64733 27.1887 6.58284 25.7483L7.19987 28.9914ZM32.8001 11.0028C33.1233 11.8425 33.3527 12.8056 33.4172 14.2461L32.8001 11.0028ZM19.9948 24.1649C17.6932 24.1649 15.8281 22.2995 15.8281 19.9973C15.8281 17.6951 17.6932 15.8297 19.9948 15.8297C22.2963 15.8297 24.1614 17.6951 24.1614 19.9973C24.1614 22.2995 22.2963 24.1649 19.9948 24.1649ZM31.2964 31.296C30.5699 32.0227 29.8519 32.4685 28.9925 32.7999L33.4172 14.2462C33.4833 15.7299 33.5 16.1936 33.5 19.9972C33.5 23.8009 33.4833 24.2646 33.4172 25.7483C33.3527 27.194 33.1235 28.1565 32.8009 28.9894C32.4626 29.8479 32.0209 30.5714 31.2964 31.296ZM28.9923 32.8C28.1529 33.1233 27.19 33.3526 25.7499 33.4171L28.9923 32.8ZM19.9948 12.3125C15.7521 12.3125 12.3059 15.7535 12.3059 20.0029C12.3059 24.2519 15.7463 27.6932 19.9948 27.6932C24.2432 27.6932 27.6837 24.2519 27.6837 20.0029C27.6837 15.7538 24.2432 12.3125 19.9948 12.3125ZM27.4668 14.7016C28.6696 14.7016 29.6446 13.7263 29.6446 12.5235C29.6446 11.3206 28.6696 10.3454 27.4668 10.3454C26.2639 10.3454 25.289 11.3206 25.289 12.5235C25.289 13.7263 26.2639 14.7016 27.4668 14.7016Z" stroke="currentColor"/>
</svg>
