<svg width="96" height="96" viewBox="0 0 96 96" fill="none" xmlns="http://www.w3.org/2000/svg">
<path fill-rule="evenodd" clip-rule="evenodd" d="M53.2116 16.9608C54.685 17.6471 55.9589 18.8527 55.9326 20.6846L55.9326 20.6862C55.8432 26.2896 56.6614 30.2435 57.9026 33.2804C59.144 36.3177 60.8323 38.4991 62.5895 40.5529C62.8788 40.8909 63.1722 41.2278 63.4669 41.5662C64.9414 43.2593 66.4482 44.9893 67.6229 47.0836C69.0582 49.6426 70 52.7302 70 57.038C70 57.1159 69.9911 57.1917 69.9743 57.2644C69.8322 69.9156 58.9468 80.0499 46.0256 78.9129L46.0252 78.9129C32.7701 77.7412 23.5509 64.6466 26.5776 51.7358L27.5507 51.9639L26.5776 51.7358C27.6549 47.141 30.1684 44.2604 32.6243 41.4459C33.3136 40.6559 33.9984 39.8712 34.6457 39.0551C37.6074 35.3209 40.2501 30.5186 40.0842 20.6871L40.0841 20.6857C40.0568 18.9213 41.3631 17.7475 42.7987 17.0663C44.2656 16.3702 46.1577 16.0254 47.9953 16.0014C49.8311 15.9773 51.7326 16.2719 53.2116 16.9608ZM67.9812 56.038C67.8489 52.5864 67.0295 50.114 65.8786 48.062C64.8136 46.1634 63.4653 44.6132 61.9954 42.9232C61.6916 42.5739 61.3826 42.2187 61.0698 41.8531C59.2647 39.7432 57.4134 37.3696 56.0513 34.0371C55.6593 33.0779 55.3097 32.0443 55.0129 30.92H53.0387C53.7555 36.0017 55.0339 38.9409 56.2823 41.8114C56.4199 42.1276 56.557 42.443 56.693 42.7603C58.122 46.0941 59.3784 49.5565 59.4953 56.038H67.9812ZM57.495 56.038C57.3802 49.8972 56.2042 46.6963 54.8548 43.5483C54.7206 43.2351 54.5842 42.9217 54.4466 42.6055C53.1595 39.6473 51.7676 36.4482 51.0198 30.92H48.9841V56.038H57.495ZM46.9841 56.038V30.92H44.9544C44.2089 36.45 42.815 39.6467 41.5259 42.6034C41.3867 42.9225 41.2488 43.2388 41.113 43.5549C39.764 46.6967 38.5879 49.8971 38.4731 56.038H46.9841ZM36.4728 56.038C36.5897 49.5566 37.846 46.0943 39.2753 42.7658C39.4129 42.4454 39.5517 42.1269 39.6908 41.8077C40.9415 38.9381 42.221 36.0025 42.9356 30.92H41.0058C39.9215 35.0153 38.1422 37.8652 36.2126 40.2979C35.4553 41.2529 34.7001 42.1211 33.9716 42.9586C31.5815 45.7066 29.4785 48.1246 28.5248 52.1923L27.5512 51.964L28.5248 52.1923C28.2236 53.4771 28.0559 54.7638 28.0118 56.038H36.4728ZM28.0435 58.038H67.9497C67.3851 69.1644 57.6753 77.9301 46.2013 76.9207C36.193 76.036 28.6786 67.6201 28.0435 58.038ZM41.4584 28.92H54.5614C54.1151 26.568 53.8819 23.8513 53.9328 20.6556C53.9328 20.6551 53.9328 20.6547 53.9328 20.6543L54.9327 20.6702L53.9328 20.6559C53.9328 20.6558 53.9328 20.6557 53.9328 20.6556C53.9428 19.9505 53.4947 19.299 52.3671 18.7738C51.2449 18.2511 49.6661 17.9797 48.0215 18.0012C46.3787 18.0227 44.7904 18.3349 43.6561 18.8732C42.4909 19.4261 42.0751 20.0637 42.0839 20.654C42.138 23.8597 41.9039 26.5761 41.4584 28.92Z" fill="currentColor"/>
</svg>
