<svg width="44" height="63" viewBox="0 0 44 63" fill="none" xmlns="http://www.w3.org/2000/svg">
  <path fill-rule="evenodd" clip-rule="evenodd" d="M27.2116 0.960807C28.685 1.64712 29.9589 2.85273 29.9326 4.68458L29.9326 4.68617C29.8432 10.2896 30.6614 14.2435 31.9026 17.2804C33.144 20.3177 34.8323 22.4991 36.5895 24.5529C36.8788 24.8909 37.1722 25.2278 37.4669 25.5662C38.9414 27.2593 40.4482 28.9893 41.6229 31.0836C43.0582 33.6426 44 36.7302 44 41.038C44 41.1159 43.9911 41.1917 43.9743 41.2644C43.8322 53.9156 32.9468 64.0499 20.0256 62.9129L20.0252 62.9129C6.7701 61.7412 -2.44907 48.6466 0.577595 35.7358L1.55069 35.9639L0.5776 35.7358C1.65485 31.141 4.16838 28.2604 6.62431 25.4459C7.31365 24.6559 7.99844 23.8712 8.64567 23.0551C11.6074 19.3209 14.2501 14.5186 14.0842 4.6871L14.0841 4.68569C14.0568 2.92129 15.3631 1.74751 16.7987 1.06628C18.2656 0.370184 20.1577 0.0253872 21.9953 0.00135316C23.8311 -0.0226572 25.7326 0.271913 27.2116 0.960807ZM41.9812 40.038C41.8489 36.5864 41.0295 34.114 39.8786 32.062C38.8136 30.1634 37.4653 28.6132 35.9954 26.9232C35.6916 26.5739 35.3826 26.2187 35.0698 25.8531C33.2647 23.7432 31.4134 21.3696 30.0513 18.0371C29.6593 17.0779 29.3097 16.0443 29.0129 14.92H27.0387C27.7555 20.0017 29.0339 22.9409 30.2823 25.8114C30.4199 26.1276 30.557 26.443 30.693 26.7603C32.122 30.0941 33.3784 33.5565 33.4953 40.038H41.9812ZM31.495 40.038C31.3802 33.8972 30.2042 30.6963 28.8548 27.5483C28.7206 27.2351 28.5842 26.9217 28.4466 26.6055C27.1595 23.6473 25.7676 20.4482 25.0198 14.92H22.9841V40.038H31.495ZM20.9841 40.038V14.92H18.9544C18.2089 20.45 16.815 23.6467 15.5259 26.6034C15.3867 26.9225 15.2488 27.2388 15.113 27.5549C13.764 30.6967 12.5879 33.8971 12.4731 40.038H20.9841ZM10.4728 40.038C10.5897 33.5566 11.846 30.0943 13.2753 26.7658C13.4129 26.4454 13.5517 26.1269 13.6908 25.8077C14.9415 22.9381 16.221 20.0025 16.9356 14.92H15.0058C13.9215 19.0153 12.1422 21.8652 10.2126 24.2979C9.45525 25.2529 8.70012 26.1211 7.97164 26.9586C5.58154 29.7066 3.47847 32.1246 2.5248 36.1923L1.5512 35.964L2.5248 36.1923C2.22359 37.4771 2.0559 38.7638 2.01181 40.038H10.4728ZM2.04351 42.038H41.9497C41.3851 53.1644 31.6753 61.9301 20.2013 60.9207C10.193 60.036 2.67862 51.6201 2.04351 42.038ZM15.4584 12.92H28.5614C28.1151 10.568 27.8819 7.85133 27.9328 4.65555C27.9328 4.65512 27.9328 4.6547 27.9328 4.65427L28.9327 4.67022L27.9328 4.65586C27.9328 4.65575 27.9328 4.65565 27.9328 4.65555C27.9428 3.95051 27.4947 3.299 26.3671 2.77378C25.2449 2.25107 23.6661 1.97967 22.0215 2.00118C20.3787 2.02267 18.7904 2.33488 17.6561 2.87315C16.4909 3.42607 16.0751 4.06371 16.0839 4.65404C16.138 7.85974 15.9039 10.5761 15.4584 12.92Z" fill="currentColor" />
</svg>