<svg width="96" height="96" viewBox="0 0 96 96" fill="none" xmlns="http://www.w3.org/2000/svg">
<rect width="96" height="96" rx="48" fill="#F7F4EF"/>
<path d="M48.4865 43.0811C50.5713 43.0811 52.6091 42.4629 54.3425 41.3047C56.076 40.1465 57.4268 38.5003 58.2245 36.5742C59.0225 34.6482 59.2311 32.5289 58.8244 30.4842C58.4179 28.4395 57.4139 26.5614 55.9399 25.0873C54.4656 23.6131 52.5875 22.6092 50.5429 22.2026C48.4983 21.7958 46.3789 22.0046 44.4527 22.8023C42.5268 23.6001 40.8805 24.9512 39.7224 26.6845C38.5641 28.4179 37.9459 30.4558 37.9459 32.5405C37.9491 35.3351 39.0607 38.0143 41.0367 39.9903C43.0127 41.9663 45.692 43.0779 48.4865 43.0811ZM48.4865 23.4054C50.2933 23.4054 52.0593 23.9412 53.5617 24.945C55.0641 25.9487 56.2348 27.3755 56.9262 29.0447C57.6177 30.7139 57.7987 32.5507 57.4462 34.3227C57.0937 36.0948 56.2235 37.7225 54.946 39.0001C53.6685 40.2776 52.0408 41.1477 50.2685 41.5001C48.4966 41.8526 46.6597 41.6717 44.9907 40.9803C43.3213 40.2889 41.8947 39.118 40.8909 37.6157C39.8871 36.1135 39.3513 34.3473 39.3513 32.5405C39.354 30.1186 40.3173 27.7966 42.0299 26.084C43.7424 24.3714 46.0644 23.4081 48.4865 23.4054ZM70.1494 59.3422C64.3999 53.605 56.6089 50.3827 48.4865 50.3827C40.364 50.3827 32.5732 53.605 26.8236 59.3422L26.586 59.5796C26.2108 59.9547 26 60.4635 26 60.9941V72C26 73.1046 26.8954 74 28 74H68.973C70.0775 74 70.973 73.1046 70.973 72V60.9941C70.973 60.4635 70.7622 59.9547 70.3869 59.5796L70.1494 59.3422ZM69.5676 70.5946C69.5676 71.6992 68.6721 72.5946 67.5676 72.5946H29.4054C28.3008 72.5946 27.4054 71.6992 27.4054 70.5946V61.3299C27.4054 60.9571 27.5535 60.5995 27.8172 60.3358C33.3034 54.862 40.7367 51.7881 48.4865 51.7881C56.2362 51.7881 63.6696 54.862 69.1558 60.3358C69.4194 60.5995 69.5676 60.9571 69.5676 61.3299V70.5946Z" fill="#9C7C56"/>
<path fill-rule="evenodd" clip-rule="evenodd" d="M44.2614 22.3404C46.279 21.5048 48.4988 21.2861 50.6404 21.7122C52.782 22.1381 54.7493 23.1896 56.2934 24.7337C57.8373 26.2777 58.889 28.2449 59.3148 30.3866C59.7408 32.5283 59.5223 34.7482 58.6865 36.7656C57.8509 38.783 56.436 40.5073 54.6203 41.7204C52.8047 42.9336 50.6702 43.5811 48.4865 43.5811C45.5596 43.5777 42.7528 42.4135 40.6832 40.3439C38.6135 38.2742 37.4493 35.4681 37.4459 32.5411C37.4459 30.3575 38.0935 28.2224 39.3066 26.4067C40.5197 24.5912 42.2441 23.176 44.2614 22.3404ZM44.644 23.2643C42.8094 24.0242 41.2413 25.3112 40.1381 26.9623C39.0349 28.6133 38.4461 30.5543 38.4459 32.54C38.449 35.2021 39.5079 37.7543 41.3903 39.6368C43.2726 41.5192 45.825 42.578 48.4871 42.5811C50.4727 42.581 52.4137 41.9921 54.0647 40.8889C55.7159 39.7857 57.0027 38.2176 57.7626 36.3829C58.5227 34.5483 58.7214 32.5294 58.334 30.5817C57.9468 28.6341 56.9904 26.845 55.5863 25.4408C54.182 24.0366 52.3929 23.0803 50.4453 22.6929C48.4977 22.3055 46.4789 22.5043 44.644 23.2643ZM48.4865 22.9054C50.3922 22.9054 52.2549 23.4705 53.8395 24.5292C55.4241 25.588 56.6589 27.0928 57.3882 28.8533C58.1175 30.6139 58.3084 32.5512 57.9366 34.4203C57.5648 36.2893 56.647 38.0061 55.2996 39.3536C53.9521 40.7011 52.2353 41.6188 50.3661 41.9905C48.4972 42.3623 46.5598 42.1715 44.7993 41.4422C43.0386 40.713 41.5339 39.478 40.4752 37.8935C39.4164 36.3091 38.8513 34.4462 38.8513 32.5405C38.8542 29.9862 39.8702 27.5366 41.6764 25.7304C43.4825 23.9242 45.932 22.9082 48.4865 22.9054ZM53.2839 25.3607C51.8638 24.4119 50.1946 23.9055 48.4868 23.9054C46.1972 23.908 44.0023 24.8186 42.3835 26.4375C40.7645 28.0565 39.8539 30.2515 39.8513 32.5411C39.8515 34.2488 40.3579 35.9181 41.3066 37.338C42.2555 38.758 43.604 39.8648 45.182 40.5184C46.7597 41.1719 48.496 41.343 50.171 41.0098C51.8462 40.6766 53.3849 39.8542 54.5924 38.6465C55.8001 37.4389 56.6227 35.9002 56.9558 34.2252C57.289 32.5502 57.1179 30.8139 56.4643 29.236C55.8107 27.6581 54.704 26.3095 53.2839 25.3607ZM26.4704 58.9882C32.3138 53.1576 40.2316 49.8827 48.4865 49.8827C56.7413 49.8827 64.6593 53.1576 70.5026 58.9883L70.7404 59.226C71.2095 59.6949 71.473 60.3309 71.473 60.9941V72C71.473 73.3807 70.3537 74.5 68.973 74.5H28C26.6193 74.5 25.5 73.3807 25.5 72V60.9941C25.5 60.3309 25.7635 59.6949 26.2325 59.226L26.4704 58.9882ZM27.1767 59.6961C27.1767 59.6962 27.1768 59.6961 27.1767 59.6961L26.9395 59.9333C26.6581 60.2146 26.5 60.5962 26.5 60.9941V72C26.5 72.8284 27.1716 73.5 28 73.5H68.973C69.8014 73.5 70.473 72.8284 70.473 72V60.9941C70.473 60.5962 70.3149 60.2146 70.0335 59.9333L69.7962 59.6961C64.1405 54.0525 56.4765 50.8827 48.4865 50.8827C40.4965 50.8827 32.8326 54.0526 27.1767 59.6961ZM48.4865 52.2881C40.8693 52.2881 33.5631 55.3094 28.1707 60.6894C28.0008 60.8593 27.9054 61.0897 27.9054 61.3299V70.5946C27.9054 71.423 28.577 72.0946 29.4054 72.0946H67.5676C68.396 72.0946 69.0676 71.423 69.0676 70.5946V61.3299C69.0676 61.0898 68.9722 60.8595 68.8026 60.6897C63.4102 55.3095 56.1037 52.2881 48.4865 52.2881ZM69.5089 59.9819C63.9291 54.4146 56.3686 51.2881 48.4865 51.2881C40.6043 51.2881 33.0439 54.4146 27.464 59.9819C27.1066 60.3393 26.9054 60.8245 26.9054 61.3299V70.5946C26.9054 71.9753 28.0247 73.0946 29.4054 73.0946H67.5676C68.9483 73.0946 70.0676 71.9753 70.0676 70.5946V61.3299C70.0676 60.8245 69.8664 60.3393 69.5089 59.9819Z" fill="#9C7C56"/>
</svg>
