<svg width="32" height="32" viewBox="0 0 32 32" fill="none" xmlns="http://www.w3.org/2000/svg">
<path d="M15.5834 16.048L15.8333 15.9037V15.615V10.7845L16 10.6883L16.1667 10.7845V15.6146V15.9033L16.4166 16.0476L20.6 18.4633V18.6561L20.4333 18.7523L16.25 16.3367L16 16.1923L15.75 16.3367L11.5666 18.7523L11.4 18.6561V18.4637L15.5834 16.048ZM26.4881 16.5H26.8218C26.7309 18.4671 26.1052 20.3759 25.0076 22.0186C23.8172 23.8001 22.1253 25.1887 20.1457 26.0087C18.1662 26.8286 15.988 27.0431 13.8864 26.6252C11.7851 26.2071 9.85473 25.1753 8.33967 23.6603C6.8246 22.1451 5.79283 20.2149 5.37483 18.1133L4.88443 18.2109L5.37482 18.1133C4.95681 16.0119 5.17135 13.8337 5.9913 11.8542L5.99131 11.8542C6.81125 9.87466 8.19979 8.18272 9.98132 6.99234L9.70354 6.57661L9.98133 6.99234C11.7629 5.80195 13.8574 5.1666 16 5.1666H18.8368H20.0439L19.1903 4.31304L17.5823 2.705L17.8179 2.46944L20.6817 5.33326L17.8179 8.19709L17.5823 7.96153L19.1903 6.35348L20.0439 5.49993H18.8368H16C13.9232 5.49993 11.8932 6.11573 10.1665 7.2695C8.4398 8.42325 7.09398 10.0631 6.29927 11.9817C5.50454 13.9004 5.2966 16.0116 5.70175 18.0484L6.19214 17.9509L5.70175 18.0484C6.10689 20.0852 7.10693 21.9561 8.57537 23.4246L8.91752 23.0824L8.57537 23.4246C10.0438 24.893 11.9147 25.8931 13.9515 26.2982L14.0491 25.8078L13.9515 26.2982C15.9884 26.7034 18.0996 26.4953 20.0181 25.7007L20.0181 25.7007C21.9368 24.9059 23.5767 23.5601 24.7304 21.8335L24.7304 21.8335C25.7913 20.2456 26.3975 18.4012 26.4881 16.5Z" fill="black" stroke="currentColor"/>
</svg>
