<svg width="40" height="40" viewBox="0 0 40 40" fill="none" xmlns="http://www.w3.org/2000/svg">
<path d="M13.9491 33.1747C8.96145 30.8837 5.5 25.844 5.5 19.9938C5.5 11.9892 11.9774 5.5 19.9938 5.5C27.9978 5.5 34.4881 11.9892 34.5 20.0069C34.4996 28.011 28.0103 34.5 20.0062 34.5C18.7284 34.5 17.5028 34.3364 16.3286 34.0309C16.9125 33.0313 17.617 31.6749 17.911 30.5223C17.9112 30.5217 17.9114 30.521 17.9115 30.5204L18.4489 28.4771L18.599 27.9063C18.8529 28.1303 19.1464 28.3269 19.4616 28.4901C20.1368 28.8397 20.9526 29.0582 21.7956 29.0582C26.6776 29.0582 30.0702 24.5769 30.0702 19.2287C30.0702 13.9583 25.764 10.0656 20.327 10.0656C16.9708 10.0656 14.3605 11.1937 12.5882 12.9758C10.8197 14.7541 9.91752 17.152 9.91752 19.636C9.91752 20.8146 10.2268 22.1232 10.7794 23.2578C11.329 24.3864 12.1488 25.401 13.2123 25.9115L13.2129 25.9118C13.3875 25.9953 13.6628 26.0909 13.9461 25.9807C14.2574 25.8596 14.3758 25.5762 14.4217 25.3763C14.4417 25.2915 14.497 25.0693 14.5639 24.8005C14.5777 24.7453 14.5919 24.6881 14.6064 24.6297C14.6908 24.2908 14.7837 23.916 14.8401 23.678C14.87 23.5571 14.8874 23.4102 14.8557 23.2483C14.8233 23.0828 14.7467 22.9373 14.641 22.8099C14.1068 22.1572 13.6448 20.8921 13.6448 19.71C13.6448 16.6578 15.9467 13.7065 19.9198 13.7065C21.6495 13.7065 23.087 14.292 24.0895 15.2665C25.0909 16.24 25.6888 17.6311 25.6888 19.3028C25.6888 21.2473 25.1962 22.8566 24.4215 23.9649C23.6505 25.0679 22.6133 25.6641 21.4747 25.6641C20.2918 25.6641 19.4659 24.7091 19.7395 23.5662C19.8894 22.9454 20.0841 22.3154 20.2789 21.6853C20.3596 21.4244 20.4403 21.1635 20.5178 20.9031C20.7737 20.0436 20.9998 19.1756 20.9998 18.4513C20.9998 17.7941 20.8236 17.1445 20.4176 16.6489C20.0006 16.1398 19.3788 15.841 18.5993 15.841C16.6965 15.841 15.3844 17.759 15.3844 19.9815C15.3844 20.6972 15.5047 21.2991 15.6256 21.7242C15.6862 21.937 15.7473 22.1068 15.7944 22.2256C15.7977 22.2338 15.8008 22.2418 15.804 22.2495L15.7778 22.3603L15.6064 23.0879C15.4633 23.6951 15.2697 24.517 15.0676 25.3755C14.6636 27.0918 14.2252 28.9564 14.0892 29.5437L14.0889 29.5451C13.8397 30.6354 13.862 32.0445 13.9491 33.1747Z" stroke="currentColor"/>
</svg>
