<svg width="25" height="25" viewBox="0 0 25 25" fill="none" xmlns="http://www.w3.org/2000/svg">
<path d="M12.4961 3.125C7.31309 3.125 3.125 7.3208 3.125 12.4961C3.125 16.4683 5.59312 19.8619 9.07934 21.2271C8.9945 20.4867 8.92509 19.3452 9.11019 18.5353C9.27987 17.8026 10.2054 13.8768 10.2054 13.8768C10.2054 13.8768 9.92776 13.3137 9.92776 12.4884C9.92776 11.1849 10.6836 10.2131 11.6246 10.2131C12.4267 10.2131 12.8124 10.8147 12.8124 11.532C12.8124 12.3342 12.3033 13.5374 12.0334 14.6557C11.8097 15.589 12.5039 16.3526 13.4217 16.3526C15.0877 16.3526 16.368 14.594 16.368 12.0642C16.368 9.81978 14.756 8.25406 12.4499 8.25406C9.78121 8.25406 8.21549 10.2517 8.21549 12.3187C8.21549 13.1209 8.52401 13.9847 8.90966 14.4552C8.98679 14.5478 8.9945 14.6326 8.97136 14.7252C8.90195 15.0183 8.73997 15.6584 8.70913 15.7895C8.67056 15.9592 8.57028 15.9978 8.39289 15.913C7.23596 15.3576 6.51095 13.6454 6.51095 12.2725C6.51095 9.31844 8.65512 6.6035 12.7044 6.6035C15.9515 6.6035 18.4813 8.91736 18.4813 12.0179C18.4813 15.2496 16.4451 17.8489 13.6222 17.8489C12.6735 17.8489 11.7788 17.3553 11.4781 16.7691C11.4781 16.7691 11.0076 18.5585 10.8919 18.9981C10.6836 19.8157 10.1129 20.8338 9.72721 21.4585C10.6065 21.7285 11.532 21.875 12.5039 21.875C17.6792 21.875 21.875 17.6792 21.875 12.5039C21.8673 7.3208 17.6715 3.125 12.4961 3.125Z" fill="currentColor"/>
</svg>
