<svg width="96" height="96" viewBox="0 0 96 96" fill="none" xmlns="http://www.w3.org/2000/svg">
<path d="M72.1496 34.3171C71.8676 33.9456 71.3243 33.9198 70.9945 34.2496C70.7088 34.5355 70.6865 34.9901 70.9304 35.3125C73.1834 38.2901 74.6066 41.8172 75.0482 45.5337C75.5174 49.4854 74.8574 53.4896 73.1441 57.0818C71.4308 60.6739 68.7343 63.7068 65.3676 65.8295C62.0009 67.9518 58.1019 69.0763 54.122 69.0732H34.6723L42.3826 61.3623C42.6872 61.0576 42.6872 60.5636 42.3826 60.2589C42.0779 59.9543 41.5839 59.9543 41.2792 60.2589L32.3903 69.1465C31.9997 69.537 31.9997 70.1703 32.3903 70.5608L41.2785 79.4477C41.5836 79.7527 42.0782 79.7526 42.3831 79.4475C42.688 79.1424 42.6879 78.648 42.3829 78.343L34.6723 70.6341H54.122C58.4104 70.6348 62.6109 69.4166 66.234 67.1219C69.8567 64.8273 72.7532 61.5505 74.5858 57.6734C76.4184 53.7962 77.1115 49.4779 76.5848 45.2221C76.0935 41.2544 74.5609 37.493 72.1496 34.3171ZM41.6342 26.9268H61.084L53.3733 34.6373C53.0683 34.9422 53.0682 35.4366 53.3731 35.7417C53.6781 36.0468 54.1727 36.0469 54.4778 35.7418L63.3661 26.8535C63.7567 26.463 63.7566 25.8298 63.3661 25.4392L54.4778 16.5523C54.1727 16.2473 53.6781 16.2474 53.3731 16.5525C53.0683 16.8576 53.0684 17.352 53.3734 17.657L61.084 25.3659H41.6342C37.3457 25.3654 33.1453 26.5834 29.5223 28.878C25.8994 31.1726 23.0029 34.4493 21.1703 38.3266C19.3378 42.2038 18.6446 46.5221 19.1715 50.7779C19.6626 54.7457 21.1953 58.507 23.6067 61.6829C23.8887 62.0544 24.432 62.0802 24.7617 61.7504C25.0475 61.4645 25.0698 61.0099 24.8259 60.6875C22.5729 57.71 21.1496 54.1827 20.7081 50.4663C20.2387 46.5146 20.8989 42.5104 22.6122 38.9182C24.3255 35.326 27.0218 32.293 30.3885 30.1707C33.7552 28.0484 37.6544 26.9236 41.6342 26.9268Z" fill="currentColor" stroke="currentColor" stroke-width="0.5"/>
</svg>
