<svg width="96" height="96" viewBox="0 0 96 96" fill="none" xmlns="http://www.w3.org/2000/svg">
<path fill-rule="evenodd" clip-rule="evenodd" d="M23.2702 16C19.7986 16 17 18.7531 17 22.1325V53.5301C17 56.8898 19.7785 59.6626 23.2702 59.6626H30.6632V61.6626H23.2702C18.7057 61.6626 15 58.0259 15 53.5301V22.1325C15 17.6083 18.7347 14 23.2702 14H71.7298C76.2943 14 80 17.6368 80 22.1325V53.506C80 58.028 76.2675 61.6626 71.7053 61.6626H40.7289L26.3405 81.5855L24.7191 80.4145L39.4069 60.0772C39.5949 59.8168 39.8964 59.6626 40.2175 59.6626H71.7053C75.1992 59.6626 78 56.8876 78 53.506V22.1325C78 18.7729 75.2215 16 71.7298 16H23.2702ZM47.4877 20.4337C47.919 20.4337 48.3017 20.7102 48.4371 21.1197L51.8208 31.3494H62.7895C63.2243 31.3494 63.6093 31.6304 63.7418 32.0445C63.8744 32.4586 63.7242 32.9109 63.3703 33.1634L54.5142 39.4822L57.8933 49.698C58.0291 50.1087 57.8855 50.5603 57.5372 50.817C57.189 51.0737 56.7152 51.0774 56.363 50.8261L47.4877 44.4935L38.6124 50.8261C38.2602 51.0774 37.7864 51.0737 37.4382 50.817C37.09 50.5603 36.9463 50.1087 37.0822 49.698L40.4612 39.4822L31.6051 33.1634C31.2512 32.9109 31.101 32.4586 31.2336 32.0445C31.3662 31.6304 31.7512 31.3494 32.186 31.3494H43.1547L46.5383 21.1197C46.6737 20.7102 47.0564 20.4337 47.4877 20.4337ZM47.4877 24.6181L44.8266 32.6634C44.6912 33.0729 44.3085 33.3494 43.8772 33.3494H35.3092L42.2229 38.2823C42.5797 38.5369 42.7292 38.9942 42.5915 39.4104L39.9421 47.4205L46.9069 42.451C47.2544 42.2031 47.721 42.2031 48.0685 42.451L55.0334 47.4205L52.3839 39.4104C52.2463 38.9942 52.3957 38.5369 52.7525 38.2823L59.6662 33.3494H51.0982C50.667 33.3494 50.2843 33.0729 50.1488 32.6634L47.4877 24.6181Z" fill="currentColor"/>
</svg>
