<svg width="65" height="68" viewBox="0 0 65 68" fill="none" xmlns="http://www.w3.org/2000/svg">
  <path fill-rule="evenodd" clip-rule="evenodd" d="M8.27018 2C4.79862 2 2 4.75312 2 8.13253V39.5301C2 42.8898 4.7785 45.6626 8.27018 45.6626H15.6632V47.6626H8.27018C3.70571 47.6626 0 44.0259 0 39.5301V8.13253C0 3.60833 3.73471 0 8.27018 0H56.7298C61.2943 0 65 3.63678 65 8.13253V39.506C65 44.028 61.2675 47.6626 56.7053 47.6626H25.7289L11.3405 67.5855L9.71914 66.4145L24.4069 46.0772C24.5949 45.8168 24.8964 45.6626 25.2175 45.6626H56.7053C60.1992 45.6626 63 42.8876 63 39.506V8.13253C63 4.77286 60.2215 2 56.7298 2H8.27018ZM32.4877 6.43373C32.919 6.43373 33.3017 6.71024 33.4371 7.1197L36.8208 17.3494H47.7895C48.2243 17.3494 48.6093 17.6304 48.7418 18.0445C48.8744 18.4586 48.7242 18.9109 48.3703 19.1634L39.5142 25.4822L42.8933 35.698C43.0291 36.1087 42.8855 36.5603 42.5372 36.817C42.189 37.0737 41.7152 37.0774 41.363 36.8261L32.4877 30.4935L23.6124 36.8261C23.2602 37.0774 22.7864 37.0737 22.4382 36.817C22.09 36.5603 21.9463 36.1087 22.0822 35.698L25.4612 25.4822L16.6051 19.1634C16.2512 18.9109 16.101 18.4586 16.2336 18.0445C16.3662 17.6304 16.7512 17.3494 17.186 17.3494H28.1547L31.5383 7.1197C31.6737 6.71024 32.0564 6.43373 32.4877 6.43373ZM32.4877 10.6181L29.8266 18.6634C29.6912 19.0729 29.3085 19.3494 28.8772 19.3494H20.3092L27.2229 24.2823C27.5797 24.5369 27.7292 24.9942 27.5915 25.4104L24.9421 33.4205L31.9069 28.451C32.2544 28.2031 32.721 28.2031 33.0685 28.451L40.0334 33.4205L37.3839 25.4104C37.2463 24.9942 37.3957 24.5369 37.7525 24.2823L44.6662 19.3494H36.0982C35.667 19.3494 35.2843 19.0729 35.1488 18.6634L32.4877 10.6181Z" fill="currentColor" />
</svg>