<svg width="21" height="21" viewBox="0 0 21 21" fill="none" xmlns="http://www.w3.org/2000/svg">
<path fill-rule="evenodd" clip-rule="evenodd" d="M3.70773 10.0762C7.93558 8.14986 10.7548 6.8799 12.1654 6.26632C16.193 4.51443 17.0299 4.21011 17.5754 4.20006C17.6953 4.19785 17.9636 4.22894 18.1373 4.37639C18.2841 4.50089 18.3244 4.66908 18.3437 4.78712C18.3631 4.90517 18.3871 5.17407 18.368 5.38418C18.1497 7.78239 17.2054 13.6022 16.7249 16.2882C16.5216 17.4248 16.1213 17.8059 15.7338 17.8432C14.8916 17.9242 14.252 17.2611 13.4363 16.7019C12.1599 15.8269 11.4388 15.2822 10.1998 14.4284C8.76792 13.4416 9.69614 12.8992 10.5122 12.0129C10.7257 11.7809 14.4365 8.25116 14.5083 7.93096C14.5173 7.89092 14.5256 7.74164 14.4408 7.66282C14.356 7.58399 14.2309 7.61095 14.1406 7.63239C14.0125 7.66277 11.9734 9.07225 8.02321 11.8608C7.44441 12.2765 6.92015 12.479 6.45044 12.4684C5.93261 12.4567 4.93653 12.1622 4.19604 11.9105C3.28781 11.6017 2.56596 11.4385 2.62882 10.9141C2.66156 10.641 3.02119 10.3617 3.70773 10.0762Z" fill="currentColor"/>
</svg>
