<svg width="96" height="96" viewBox="0 0 96 96" fill="none" xmlns="http://www.w3.org/2000/svg">
  <rect width="96" height="96" rx="48" />
  <path d="M48 20C42.4621 20 37.0486 21.6422 32.444 24.7188C27.8395 27.7955 24.2506 32.1685 22.1314 37.2849C20.0121 42.4011 19.4576 48.031 20.538 53.4625C21.6184 58.8939 24.2851 63.883 28.201 67.799C32.1169 71.7148 37.106 74.3815 42.5375 75.4621C47.9689 76.5423 53.5988 75.9879 58.715 73.8686C63.8314 71.7493 68.2045 68.1605 71.2811 63.5559C74.3577 58.9513 75.9999 53.5378 75.9999 48C75.9999 44.323 75.2756 40.682 73.8686 37.2849C72.4616 33.8877 70.3991 30.801 67.799 28.201C65.1989 25.601 62.1122 23.5385 58.715 22.1314C55.318 20.7242 51.6769 20 48 20ZM48 74.5999C42.7391 74.5999 37.5962 73.0398 33.2218 70.1171C28.8475 67.1942 25.4381 63.0399 23.4248 58.1794C21.4115 53.3188 20.8847 47.9706 21.9111 42.8105C22.9375 37.6507 25.4709 32.911 29.191 29.191C32.911 25.4709 37.6507 22.9375 42.8105 21.9111C47.9706 20.8847 53.3188 21.4115 58.1794 23.4248C63.0399 25.4381 67.1942 28.8475 70.1171 33.2218C73.0398 37.5962 74.5999 42.7391 74.5999 48C74.5918 55.0523 71.7868 61.8135 66.8003 66.8003C61.8135 71.7868 55.0523 74.5918 48 74.5999ZM47.7662 32.7176C47.7662 32.331 47.4528 32.0176 47.0662 32.0176V32.0176C46.6796 32.0176 46.3662 32.331 46.3662 32.7176V47.5176C46.3662 48.6221 47.2616 49.5176 48.3662 49.5176H60.3676C60.7542 49.5176 61.0676 49.2042 61.0676 48.8176V48.8176C61.0676 48.431 60.7542 48.1176 60.3676 48.1176H49.7662C48.6616 48.1176 47.7662 47.2221 47.7662 46.1176V32.7176Z" stroke="currentColor" />
</svg>