<svg width="21" height="21" viewBox="0 0 21 21" fill="none" xmlns="http://www.w3.org/2000/svg">
<path d="M2.1001 18.9001L3.28749 14.5883C2.55339 13.3227 2.16829 11.8895 2.1723 10.4242C2.1723 5.83299 5.92703 2.1001 10.5362 2.1001C12.7746 2.1001 14.8766 2.96645 16.4531 4.53945C18.0336 6.11245 18.9041 8.20447 18.9001 10.4282C18.9001 15.0195 15.1454 18.7524 10.5322 18.7524H10.5282C9.12817 18.7524 7.75224 18.401 6.52875 17.7383L2.1001 18.9001ZM6.74135 16.2332L6.99408 16.3849C8.06112 17.0157 9.28462 17.3471 10.5322 17.351H10.5362C14.3671 17.351 17.4881 14.249 17.4881 10.4322C17.4881 8.58375 16.766 6.84706 15.4542 5.53755C14.1425 4.22804 12.3935 3.50941 10.5362 3.50941C6.70525 3.50542 3.58434 6.60751 3.58434 10.4242C3.58434 11.7298 3.94938 13.0033 4.64737 14.1052L4.81184 14.3687L4.10984 16.9199L6.74135 16.2332Z" fill="currentColor"/>
<path fill-rule="evenodd" clip-rule="evenodd" d="M8.44617 6.94287C8.28972 6.59554 8.12525 6.58755 7.97683 6.58356C7.85649 6.57957 7.71608 6.57957 7.57568 6.57957C7.43528 6.57957 7.21064 6.63147 7.01809 6.83907C6.82554 7.04668 6.28801 7.54972 6.28801 8.57576C6.28801 9.59782 7.03815 10.5879 7.14245 10.7277C7.24674 10.8674 8.59058 13.0353 10.7126 13.8697C12.4777 14.5644 12.8387 14.4246 13.2198 14.3887C13.6009 14.3528 14.4553 13.8856 14.6318 13.3986C14.8043 12.9115 14.8043 12.4963 14.7522 12.4085C14.7 12.3206 14.5596 12.2687 14.351 12.1649C14.1424 12.0611 13.1155 11.5581 12.923 11.4862C12.7304 11.4184 12.59 11.3824 12.4536 11.59C12.3132 11.7976 11.9121 12.2647 11.7917 12.4045C11.6714 12.5442 11.547 12.5602 11.3384 12.4564C11.1298 12.3526 10.4559 12.133 9.65763 11.4223C9.03585 10.8714 8.61465 10.1887 8.49431 9.98109C8.37396 9.77348 8.48227 9.6617 8.58657 9.55789C8.67883 9.46607 8.79517 9.31436 8.89947 9.19459C9.00376 9.07481 9.03987 8.98698 9.10806 8.84725C9.17626 8.70751 9.14416 8.58774 9.09201 8.48394C9.03987 8.38413 8.6307 7.35409 8.44617 6.94287Z" fill="currentColor"/>
</svg>
