<svg width="25" height="25" viewBox="0 0 25 25" fill="none" xmlns="http://www.w3.org/2000/svg">
<path fill-rule="evenodd" clip-rule="evenodd" d="M20.8144 5.45882C21.7246 5.70588 22.4423 6.42941 22.6873 7.34706C23.1424 9.02353 23.1249 12.5176 23.1249 12.5176C23.1249 12.5176 23.1249 15.9941 22.6873 17.6706C22.4423 18.5882 21.7246 19.3118 20.8144 19.5588C19.1515 20 12.5 20 12.5 20C12.5 20 5.86592 20 4.18553 19.5412C3.27532 19.2941 2.55766 18.5706 2.3126 17.6529C1.875 15.9941 1.875 12.5 1.875 12.5C1.875 12.5 1.875 9.02353 2.3126 7.34706C2.55766 6.42941 3.29283 5.68824 4.18553 5.44118C5.84842 5 12.5 5 12.5 5C12.5 5 19.1515 5 20.8144 5.45882ZM15.9125 12.5L10.3812 15.7118V9.28825L15.9125 12.5Z" fill="currentColor"/>
</svg>
