<svg width="40" height="40" viewBox="0 0 40 40" fill="none" xmlns="http://www.w3.org/2000/svg">
<path d="M33.17 9.21611L33.172 9.21666C34.4549 9.56486 35.4701 10.5867 35.8166 11.8843L35.8172 11.8863C36.1654 13.1689 36.3393 15.1872 36.4234 16.9219C36.4651 17.7815 36.4842 18.5584 36.4929 19.1205C36.4973 19.4015 36.499 19.6284 36.4996 19.7849C36.5 19.8631 36.5 19.9236 36.5 19.9645L36.4999 20.0107L36.4999 20.0222L36.4999 20.025L36.4999 20.0256L36.4999 20.0257V20.0282V20.0284V20.029L36.4999 20.0318L36.4998 20.0433L36.4997 20.0893C36.4995 20.13 36.4992 20.1903 36.4985 20.2681C36.4972 20.4239 36.4944 20.6498 36.489 20.9296C36.4781 21.4892 36.4564 22.2629 36.413 23.1194C36.3254 24.8463 36.1516 26.8598 35.8162 28.1456C35.4694 29.4419 34.4551 30.4628 33.1735 30.8112C32.5595 30.9738 31.4405 31.104 30.0659 31.2035C28.7041 31.302 27.1323 31.368 25.639 31.412C24.1465 31.456 22.7363 31.478 21.6991 31.489C21.1805 31.4945 20.7554 31.4973 20.4601 31.4986C20.3124 31.4993 20.1972 31.4997 20.119 31.4998L20.03 31.5L20.0074 31.5L20.0017 31.5H20.0004H20L19.9999 32L19.9998 31.5H19.9995H19.9981L19.9925 31.5L19.97 31.5L19.8812 31.4998C19.8032 31.4996 19.6883 31.4993 19.541 31.4986C19.2464 31.4971 18.8223 31.4943 18.3049 31.4886C17.2699 31.4771 15.8626 31.4542 14.372 31.4085C12.8805 31.3627 11.3099 31.2941 9.94721 31.1917C8.57056 31.0882 7.44828 30.9528 6.82856 30.7835L6.82783 30.7833C5.54524 30.4352 4.53017 29.4137 4.18345 28.1165C3.84833 26.8457 3.67449 24.8329 3.58688 23.1018C3.54345 22.2436 3.52171 21.4672 3.51085 20.9053C3.50541 20.6245 3.5027 20.3976 3.50135 20.2411C3.50067 20.1628 3.50033 20.1023 3.50017 20.0614L3.50002 20.0151L3.5 20.0036L3.5 20.0008L3.5 20.0001V20L3 20L3.5 20V19.9999L3.5 19.9992L3.5 19.9965L3.50002 19.985L3.50017 19.9389C3.50033 19.8983 3.50067 19.838 3.50135 19.7601C3.5027 19.6043 3.50541 19.3784 3.51085 19.0987C3.52171 18.539 3.54345 17.7653 3.58688 16.9089C3.67444 15.1821 3.84821 13.1688 4.18359 11.883C4.53063 10.5854 5.57393 9.53648 6.82766 9.18848C7.4419 9.02598 8.56027 8.89589 9.93399 8.79649C11.2958 8.69796 12.8675 8.63204 14.3609 8.58802C15.8534 8.54402 17.2635 8.52201 18.3008 8.511C18.8193 8.5055 19.2444 8.50275 19.5398 8.50137C19.6874 8.50069 19.8026 8.50034 19.8809 8.50017L19.9699 8.50002L19.9925 8.5L19.9981 8.5L19.9995 8.5L19.9998 8.5L19.9999 8L20 8.5L20.0003 8.5L20.0017 8.5L20.0074 8.5L20.03 8.50002L20.119 8.50018C20.1972 8.50036 20.3123 8.50071 20.46 8.50143C20.7553 8.50286 21.1804 8.50572 21.6989 8.51144C22.736 8.52289 24.1461 8.54578 25.6384 8.59153C27.1316 8.63731 28.7031 8.70585 30.0644 8.8083C31.4401 8.91182 32.5581 9.04727 33.17 9.21611ZM25.7111 20.4324L26.4557 20L25.7111 19.5676L16.861 14.4288L16.11 13.9927V14.8612V25.1389V26.0074L16.861 25.5712L25.7111 20.4324Z" stroke="currentColor"/>
</svg>
