<svg width="76" height="135" viewBox="0 0 76 135" fill="none" xmlns="http://www.w3.org/2000/svg">
	<g clip-path="url(#clip0_519_9734)">
		<path d="M1.1471 87.6191C1.85414 87.6191 2.32386 88.1469 2.32386 88.7635C2.32386 89.4985 1.76514 89.9376 1.1471 89.9376C0.444994 89.9376 0 89.4097 0 88.8523C0 88.7043 0.0296663 88.5317 0.0889988 88.3541C0.23733 87.9151 0.677379 87.6191 1.1471 87.6191ZM1.46848 102.596C2.17058 102.596 2.67491 103.123 2.67491 103.74C2.67491 104.416 2.11619 104.944 1.52781 104.944C0.7911 104.944 0.291718 104.357 0.291718 103.77C0.291718 103.622 0.321384 103.479 0.380717 103.331C0.588381 102.887 0.998764 102.596 1.46848 102.596ZM1.67614 90.9044C2.41286 90.9044 2.88257 91.4322 2.88257 91.9897C2.88257 92.7789 2.20519 93.2476 1.65142 93.2476C0.914709 93.2476 0.47466 92.6902 0.47466 92.1327C0.47466 91.9255 0.504326 91.8121 0.593325 91.6641C0.7911 91.1955 1.20643 90.9044 1.67614 90.9044ZM3.46601 85.0145C4.14339 85.0145 4.64277 85.5719 4.64277 86.1293C4.64277 86.9186 4.05439 87.3872 3.49567 87.3872C2.70457 87.3872 2.28925 86.7706 2.28925 86.2132C2.28925 86.0652 2.31891 85.9221 2.37824 85.7742C2.58591 85.3055 2.99629 85.0145 3.46601 85.0145ZM4.49444 93.0404C5.17182 93.0404 5.64153 93.5682 5.64153 94.1552C5.64153 94.8557 5.17182 95.3293 4.49444 95.3293C3.79234 95.3293 3.31768 94.7719 3.31768 94.1848C3.31768 94.0664 3.34734 93.9234 3.40667 93.7754C3.55501 93.3068 4.02472 93.0404 4.49444 93.0404ZM4.81582 104.031C5.4932 104.031 5.99258 104.618 5.99258 105.205C5.99258 105.906 5.4042 106.409 4.84549 106.409C4.16811 106.409 3.66873 105.91 3.66873 105.323C3.66873 105.116 3.69839 104.944 3.78739 104.796C3.93572 104.352 4.34611 104.031 4.81582 104.031ZM7.02101 84.166C7.63906 84.166 8.13844 84.6938 8.13844 85.2809C8.13844 85.9567 7.60939 86.4845 6.93201 86.4845C6.25464 86.4845 5.78492 85.9271 5.78492 85.3401C5.78492 85.1921 5.81459 85.049 5.87392 84.901C6.08158 84.4275 6.52163 84.166 7.02101 84.166ZM7.99011 94.0073C8.66749 94.0073 9.19654 94.5351 9.19654 95.1221C9.19654 95.7387 8.63782 96.2961 8.01978 96.2961C7.3424 96.2961 6.87268 95.7979 6.87268 95.2109C6.87268 95.0629 6.90235 94.9198 6.96168 94.7719C7.10507 94.2144 7.5204 94.0073 7.99011 94.0073ZM8.66255 104.44C9.33993 104.44 9.77998 104.998 9.77998 105.614C9.77998 106.315 9.1916 106.759 8.57355 106.759C7.89617 106.759 7.42645 106.231 7.42645 105.644C7.42645 105.496 7.45612 105.353 7.51545 105.205C7.72311 104.731 8.16316 104.44 8.66255 104.44ZM10.4574 84.4867C11.1347 84.4867 11.5748 85.0441 11.5748 85.6311C11.5748 86.3069 11.0457 86.8347 10.4574 86.8347C9.77997 86.8347 9.28059 86.3069 9.28059 85.7199C9.28059 85.5719 9.31026 85.4289 9.36959 85.2809C9.57231 84.7777 9.98764 84.4867 10.4574 84.4867ZM11.4561 95.1813C12.1928 95.1813 12.6032 95.7683 12.6032 96.2665C12.6032 97.0015 12.0742 97.4998 11.3968 97.4998C10.7194 97.4998 10.2794 96.9424 10.2794 96.3257C10.2794 96.1777 10.309 96.0347 10.3684 95.8867C10.5711 95.4427 10.9815 95.1813 11.4561 95.1813ZM12.1879 103.414C12.8653 103.414 13.3053 103.972 13.3053 104.588C13.3053 105.264 12.7763 105.792 12.0989 105.792C11.4215 105.792 10.9815 105.235 10.9815 104.618C10.9815 104.47 11.0111 104.327 11.0705 104.179C11.2188 103.705 11.6885 103.414 12.1879 103.414ZM13.7157 86.2428C14.5068 86.2428 14.9518 86.8298 14.9518 87.3872C14.9518 88.0877 14.3634 88.5613 13.7454 88.5613C13.0383 88.5613 12.5983 88.0039 12.5983 87.4168C12.5983 87.2392 12.6279 87.0962 12.6576 87.0074C12.8653 86.5092 13.2163 86.2428 13.7157 86.2428ZM14.1261 97.3469C14.8282 97.3469 15.3028 97.9043 15.3028 98.4913C15.3028 99.1967 14.8035 99.6949 14.1261 99.6949C13.419 99.6949 12.9493 99.1967 12.9493 98.5801C12.9493 98.4321 12.979 98.2595 13.0383 98.0819C13.1867 97.6428 13.6267 97.3469 14.1261 97.3469ZM14.5365 100.662C15.2138 100.662 15.7132 101.19 15.7132 101.777C15.7132 102.452 15.2435 103.01 14.5661 103.01C13.775 103.01 13.335 102.452 13.335 101.865C13.335 101.717 13.3646 101.574 13.424 101.426C13.6267 100.953 14.0667 100.662 14.5365 100.662Z" fill="#9C7C56" />
		<path d="M20.3212 85.5423C20.3212 86.1589 19.8514 86.5684 19.2927 86.6572C18.556 86.6572 18.0566 86.1885 18.0566 85.4831C18.0566 84.8665 18.4967 84.4571 19.1147 84.3683C19.7328 84.3683 20.2915 84.7185 20.3212 85.3943V85.5423ZM21.7006 88.4429C21.7006 89.1187 21.1716 89.5282 20.4942 89.5282C19.9058 89.5282 19.5251 89.0891 19.4361 88.4725C19.4361 87.7967 19.9058 87.2689 20.6129 87.2689C21.2309 87.2689 21.671 87.7375 21.7006 88.2949V88.4429ZM23.0801 91.3435C23.0801 92.0193 22.5807 92.3991 21.8737 92.3991C21.315 92.3991 20.9046 91.9601 20.8156 91.3435C20.8156 90.7269 21.1667 90.199 21.844 90.1102C22.5214 90.1102 23.0505 90.4901 23.0752 91.1659V91.3435H23.0801ZM23.2878 95.2997C22.7291 95.2997 22.289 94.8607 22.2 94.2441C22.2 93.5436 22.6697 93.0157 23.3768 93.0157C23.9652 93.0157 24.4052 93.514 24.4942 94.0714C24.4893 94.7423 24.0789 95.2997 23.2878 95.2997ZM24.6673 98.1707C24.0492 98.1707 23.5795 97.6133 23.5795 96.9966C23.5795 96.38 24.1086 95.8818 24.7859 95.8818C25.3743 95.8818 25.7847 96.38 25.8737 96.9374C25.8737 97.6428 25.4584 98.1707 24.6673 98.1707ZM26.1951 101.071C25.493 101.071 24.9639 100.603 24.9639 99.8972C24.9639 99.2214 25.493 98.7824 26.1704 98.7824C26.7291 98.7824 27.1691 99.2214 27.2581 99.838C27.2532 100.455 26.8972 100.982 26.1951 101.071ZM28.514 102.857C28.514 103.474 27.9849 103.942 27.3076 103.942C26.6302 103.942 26.2198 103.414 26.2198 102.739C26.2198 102.122 26.7489 101.653 27.4262 101.653C27.9849 101.653 28.425 102.092 28.514 102.709V102.857ZM28.8947 104.352C29.4831 104.352 30.0121 104.879 30.0121 105.437C30.0121 106.113 29.4831 106.611 28.9244 106.611C28.2173 106.611 27.718 106.231 27.718 105.555V105.378C27.8069 104.791 28.3063 104.352 28.8947 104.352ZM30.3335 101.658C31.0109 101.658 31.5647 102.068 31.5647 102.744C31.5647 103.419 31.0653 103.947 30.4472 103.947C29.7699 103.947 29.2705 103.479 29.2705 102.862V102.714C29.3644 102.097 29.7451 101.658 30.3335 101.658ZM31.54 98.7824C32.2173 98.7824 32.7464 99.1918 32.7464 99.8676C32.7464 100.543 32.2767 101.071 31.5993 101.071C30.9219 101.071 30.4819 100.543 30.4819 99.986V99.838C30.5709 99.2214 30.9516 98.7824 31.54 98.7824ZM32.9491 95.8818C33.5671 95.8818 34.1259 96.38 34.1259 96.967C34.1259 97.6429 33.7155 98.1707 33.0381 98.1707C32.3607 98.1707 31.8613 97.702 31.8613 97.0854V96.9374C31.9503 96.38 32.3607 95.8818 32.9491 95.8818ZM34.3286 93.0108C34.9466 93.0108 35.5053 93.4202 35.5053 94.0961C35.5053 94.7965 35.095 95.2997 34.4176 95.2997C33.6809 95.2997 33.2408 94.7423 33.2408 94.0665C33.3298 93.509 33.7402 93.0108 34.3286 93.0108ZM34.7093 91.2843C34.7093 90.6085 35.268 90.1398 35.8564 90.1398C36.5338 90.1398 36.9738 90.7565 36.9738 91.3139C36.9738 91.9897 36.3558 92.4287 35.7971 92.4287C35.6191 92.4287 35.5053 92.3991 35.4163 92.3695C34.9763 92.1623 34.7093 91.7233 34.7093 91.2843ZM37.0875 87.2689C37.8243 87.2689 38.294 87.8263 38.294 88.4133C38.294 89.0891 37.7649 89.5282 37.1765 89.5282C36.4398 89.5282 35.9998 89.0003 35.9998 88.2949C36.0888 87.7375 36.5338 87.2689 37.0875 87.2689ZM38.556 84.3683C39.2334 84.3683 39.6734 84.9553 39.6734 85.567C39.6734 86.1836 39.1147 86.6522 38.4967 86.6522C37.9083 86.6522 37.3793 86.1244 37.3793 85.5374V85.3894C37.4732 84.8073 37.9726 84.3683 38.556 84.3683Z" fill="#9C7C56" />
		<path d="M43.6045 84.6296C44.2819 84.6296 44.7516 85.1871 44.7516 85.7741C44.7516 86.4499 44.1929 86.9185 43.6045 86.9185C42.9271 86.9185 42.4574 86.3611 42.4574 85.7445C42.4574 85.6261 42.4277 85.483 42.5167 85.3647C42.7244 84.9256 43.1397 84.6296 43.6045 84.6296ZM43.6045 88.0038C44.2819 88.0038 44.7516 88.5612 44.7516 89.1482C44.7516 89.824 44.1929 90.2927 43.6045 90.2927C42.9271 90.2927 42.4574 89.7648 42.4574 89.1482C42.4574 89.0298 42.4871 88.8868 42.5464 88.7388C42.6947 88.2948 43.1397 88.0038 43.6045 88.0038ZM43.6045 91.2546C44.2819 91.2546 44.7516 91.812 44.7516 92.399C44.7516 93.0749 44.1929 93.5435 43.6045 93.5435C42.9271 93.5435 42.4574 93.0157 42.4574 92.399C42.4574 92.2806 42.4871 92.1376 42.5464 91.9896C42.6947 91.5456 43.1397 91.2546 43.6045 91.2546ZM43.6391 94.4462C44.3165 94.4462 44.7565 95.0036 44.7565 95.5907C44.7565 96.2665 44.1978 96.7351 43.6094 96.7351C42.932 96.7351 42.4623 96.1777 42.4623 95.5907C42.4623 95.4723 42.492 95.3292 42.5513 95.1812C42.6947 94.7126 43.1644 94.4462 43.6391 94.4462ZM43.6391 97.7316C44.3165 97.7316 44.7565 98.289 44.7565 98.8464C44.7565 99.5222 44.2275 100.02 43.6094 100.02C42.932 100.02 42.4623 99.463 42.4623 98.876C42.4623 98.7576 42.492 98.6146 42.5513 98.4666C42.6947 97.993 43.1644 97.7316 43.6391 97.7316ZM43.6045 100.982C44.2819 100.982 44.7516 101.54 44.7516 102.127C44.7516 102.803 44.1929 103.271 43.6045 103.271C42.9271 103.271 42.4574 102.743 42.4574 102.127C42.4574 102.008 42.4871 101.865 42.5464 101.717C42.6947 101.273 43.1397 100.982 43.6045 100.982ZM43.6045 104.085C44.2819 104.085 44.7516 104.643 44.7516 105.23C44.7516 105.905 44.1929 106.374 43.5748 106.374C42.8974 106.374 42.4574 105.817 42.4574 105.23C42.4574 105.111 42.4871 104.968 42.5464 104.82C42.6947 104.381 43.1397 104.085 43.6045 104.085ZM46.8381 84.605C47.5155 84.605 47.9555 85.192 47.9555 85.7494C47.9555 86.4252 47.3968 86.8939 46.8381 86.8939C46.1607 86.8939 45.691 86.3069 45.691 85.7198C45.691 85.6014 45.6613 85.4584 45.7503 85.34C45.958 84.8664 46.3684 84.605 46.8381 84.605ZM46.8381 94.387C47.5155 94.387 47.9555 94.974 47.9555 95.5611C47.9555 96.2369 47.3968 96.6759 46.8381 96.6759C46.1607 96.6759 45.691 96.0889 45.691 95.5019C45.691 95.3835 45.6613 95.2404 45.7503 95.122C45.958 94.6534 46.3684 94.387 46.8381 94.387ZM46.8084 104.061C47.4858 104.061 47.9555 104.618 47.9555 105.235C47.9555 105.91 47.3968 106.349 46.8381 106.349C46.1607 106.349 45.691 105.792 45.691 105.175C45.691 105.057 45.6613 104.914 45.7503 104.796C45.958 104.292 46.3091 104.061 46.8084 104.061ZM50.1558 84.605C50.8332 84.605 51.2732 85.1624 51.2732 85.7198C51.2732 86.3956 50.7145 86.8939 50.1261 86.8939C49.4487 86.8939 48.979 86.3364 48.979 85.7494C48.979 85.631 49.0087 85.488 49.068 85.34C49.2163 84.8664 49.6861 84.605 50.1558 84.605ZM50.1558 94.387C50.8332 94.387 51.2732 94.9444 51.2732 95.5019C51.2732 96.1777 50.7442 96.6759 50.1261 96.6759C49.4487 96.6759 48.979 96.1185 48.979 95.5315C48.979 95.4131 49.0087 95.27 49.068 95.122C49.2163 94.6534 49.6861 94.387 50.1558 94.387ZM50.1261 104.061C50.8035 104.061 51.2732 104.618 51.2732 105.205C51.2732 105.881 50.7145 106.349 50.1261 106.349C49.4487 106.349 48.979 105.822 48.979 105.205C48.979 105.087 49.0087 104.944 49.068 104.796C49.2163 104.352 49.6564 104.061 50.1261 104.061ZM53.4735 84.605C54.1508 84.605 54.5909 85.192 54.5909 85.7494C54.5909 86.4252 54.0025 86.8939 53.4438 86.8939C52.7664 86.8939 52.2967 86.3364 52.2967 85.7494C52.2967 85.631 52.3264 85.488 52.3857 85.34C52.5934 84.8664 53.0037 84.605 53.4735 84.605ZM53.4735 94.387C54.1508 94.387 54.5909 94.974 54.5909 95.5611C54.5909 96.2369 54.0322 96.6759 53.4438 96.6759C52.7664 96.6759 52.2967 96.1185 52.2967 95.5315C52.2967 95.4131 52.3264 95.27 52.3857 95.122C52.5934 94.6534 53.0037 94.387 53.4735 94.387ZM53.4438 104.061C54.1212 104.061 54.5909 104.618 54.5909 105.235C54.5909 105.91 54.0322 106.349 53.4438 106.349C52.7664 106.349 52.2967 105.822 52.2967 105.205C52.2967 105.087 52.3264 104.944 52.3857 104.796C52.5934 104.292 52.9444 104.061 53.4438 104.061ZM56.6477 84.605C57.3251 84.605 57.7948 85.192 57.7948 85.7494C57.7948 86.4252 57.2065 86.8939 56.6477 86.8939C55.9704 86.8939 55.5006 86.3069 55.5006 85.7198C55.5006 85.6014 55.471 85.4584 55.56 85.34C55.7676 84.8664 56.178 84.605 56.6477 84.605ZM56.6477 94.387C57.3251 94.387 57.7948 94.9444 57.7948 95.5315C57.7948 96.2073 57.2065 96.6759 56.6477 96.6759C55.9704 96.6759 55.5006 96.0889 55.5006 95.5019C55.5006 95.3835 55.471 95.2404 55.56 95.122C55.7676 94.6534 56.178 94.387 56.6477 94.387ZM56.6181 104.061C57.2955 104.061 57.7948 104.618 57.7948 105.205C57.7948 105.881 57.2065 106.349 56.6477 106.349C55.9704 106.349 55.5006 105.792 55.5006 105.175C55.5006 105.057 55.471 104.914 55.56 104.796C55.7676 104.292 56.1187 104.061 56.6181 104.061Z" fill="#9C7C56" />
		<path d="M61.3745 84.5755C62.0519 84.5755 62.5216 85.1329 62.5216 85.7495C62.5216 86.455 61.9332 86.8348 61.3745 86.8348C60.6724 86.8348 60.2274 86.2478 60.2274 85.6903C60.2274 85.572 60.1977 85.4289 60.2867 85.3105C60.4895 84.8665 60.9048 84.5755 61.3745 84.5755ZM64.6328 84.5755C65.3102 84.5755 65.7799 85.1329 65.7799 85.7199C65.7799 86.3958 65.2212 86.8348 64.6625 86.8348C63.9555 86.8348 63.4857 86.2774 63.4857 85.7199C63.4857 85.6016 63.5154 85.4585 63.5747 85.3105C63.7231 84.8665 64.1631 84.5755 64.6328 84.5755ZM68.0988 84.5459C68.7762 84.5459 69.2459 85.1033 69.2459 85.6903C69.2459 86.3662 68.6872 86.8052 68.0988 86.8052C67.4215 86.8052 66.9518 86.2774 66.9518 85.6903C66.9518 85.572 66.9814 85.4289 67.0408 85.2809C67.1891 84.8369 67.6291 84.5459 68.0988 84.5459ZM68.1285 87.9151C68.8059 87.9151 69.2459 88.4725 69.2459 89.0299C69.2459 89.7058 68.7169 90.1744 68.0988 90.1744C67.4215 90.1744 66.9518 89.6466 66.9518 89.0595C66.9518 88.9116 66.9814 88.7685 67.0408 88.6205C67.1891 88.1765 67.6588 87.9151 68.1285 87.9151ZM68.0988 91.1659C68.7762 91.1659 69.2459 91.6937 69.2459 92.2808C69.2459 92.9566 68.6872 93.4548 68.0988 93.4548C67.4215 93.4548 66.9518 92.8974 66.9518 92.3104C66.9518 92.192 66.9814 92.0489 67.0408 91.9009C67.1891 91.457 67.6291 91.1659 68.0988 91.1659ZM68.0988 94.3329C68.7762 94.3329 69.2459 94.9199 69.2459 95.4773C69.2459 96.1531 68.6872 96.6514 68.0988 96.6514C67.4215 96.6514 66.9518 96.0939 66.9518 95.5069C66.9518 95.3885 66.9814 95.2455 67.0408 95.0975C67.1891 94.6239 67.6588 94.3329 68.0988 94.3329ZM68.0988 97.6133C68.7762 97.6133 69.2459 98.2003 69.2459 98.7873C69.2459 99.4631 68.6872 99.9022 68.1285 99.9022C67.4215 99.9022 66.9814 99.3743 66.9814 98.7873C66.9814 98.6097 67.0111 98.4667 67.0408 98.3779C67.2484 97.9043 67.6588 97.6133 68.0988 97.6133ZM68.0988 100.894C68.7762 100.894 69.2459 101.451 69.2459 102.068C69.2459 102.744 68.6872 103.153 68.0988 103.153C67.3967 103.153 66.9814 102.596 66.9814 102.038C66.9814 101.861 67.0111 101.717 67.0408 101.629C67.2484 101.185 67.6588 100.894 68.0988 100.894ZM68.0988 104.001C68.7762 104.001 69.2459 104.588 69.2459 105.146C69.2459 105.822 68.6872 106.29 68.1285 106.29C67.4215 106.29 66.9814 105.733 66.9814 105.146C66.9814 104.968 67.0111 104.825 67.0408 104.736C67.2484 104.292 67.6588 104.001 68.0988 104.001ZM71.5649 84.5755C72.2422 84.5755 72.7416 85.1033 72.7416 85.7199C72.7416 86.4204 72.1532 86.8348 71.5945 86.8348C70.9171 86.8348 70.4474 86.307 70.4474 85.7199C70.4474 85.6016 70.4771 85.4585 70.5364 85.3105C70.6848 84.8665 71.0951 84.5755 71.5649 84.5755ZM74.8529 84.5755C75.5302 84.5755 76 85.1329 76 85.7199C76 86.3958 75.4412 86.8348 74.8529 86.8348C74.1755 86.8348 73.7058 86.307 73.7058 85.7199C73.7058 85.6016 73.7354 85.4585 73.7948 85.3105C74.0024 84.8073 74.3535 84.5755 74.8529 84.5755Z" fill="#9C7C56" />
		<path d="M14.7537 59.082V72.2678H12.242V61.3364H5.71047V72.2678H3.19873V59.082H14.7537Z" fill="#9C7C56" />
		<path d="M14.8133 72.3269H12.1878V61.3955H5.76505V72.3269H3.14453V59.0277H14.8133V72.3269ZM12.3015 72.2135H14.6995V59.1412H3.25825V72.2135H5.65627V61.2821H12.3065V72.2135H12.3015Z" fill="#9C7C56" />
		<path d="M34.8682 59.082C35.5159 59.082 36.129 59.2054 36.7025 59.452C37.2761 59.6986 37.7705 60.0292 38.1908 60.4534C38.6111 60.8727 38.9473 61.3709 39.1945 61.9382C39.4417 62.5104 39.5653 63.1172 39.5653 63.7683C39.5653 64.4146 39.4566 65.0164 39.239 65.5689C39.0215 66.1213 38.705 66.6048 38.2798 67.0191C37.8595 67.4335 37.3255 67.7591 36.6828 67.9909C36.04 68.2228 35.2934 68.3412 34.4529 68.3412H31.511V72.2678H28.9844V59.082H34.8682ZM34.8682 66.072C35.239 66.072 35.5653 66.0079 35.8422 65.8846C36.1191 65.7563 36.3466 65.5886 36.5196 65.3715C36.6927 65.1545 36.8212 64.9078 36.9102 64.6316C36.9943 64.3554 37.0388 64.0692 37.0388 63.7683C37.0388 63.4674 36.9844 63.1714 36.8756 62.8755C36.7668 62.5795 36.6086 62.318 36.4059 62.0911C36.2032 61.8642 35.9461 61.6768 35.6494 61.5337C35.3478 61.3907 35.0017 61.3167 34.6012 61.3167H31.5159V66.072H34.8682Z" fill="#9C7C56" />
		<path d="M31.5651 72.3269H28.9248V59.0277H34.8679C35.5206 59.0277 36.1436 59.156 36.7221 59.4026C37.2956 59.6493 37.8049 59.9896 38.2301 60.4139C38.6553 60.8381 38.9965 61.3413 39.2437 61.9184C39.4909 62.4956 39.6195 63.1171 39.6195 63.7683C39.6195 64.4194 39.5107 65.036 39.2882 65.5885C39.0707 66.146 38.7443 66.6392 38.3191 67.0585C37.8939 67.4778 37.35 67.8084 36.7023 68.0451C36.0546 68.2819 35.2981 68.4003 34.4526 68.4003H31.5651V72.3269ZM29.0385 72.2135H31.4514V68.2868H34.4526C35.2833 68.2868 36.0299 68.1685 36.6628 67.9366C37.2956 67.7048 37.8247 67.3841 38.24 66.9796C38.6553 66.5751 38.9718 66.0917 39.1844 65.5491C39.397 65.0064 39.5058 64.4096 39.5058 63.7683C39.5058 63.1319 39.3822 62.5252 39.1399 61.9628C38.8976 61.4005 38.5663 60.9072 38.151 60.4928C37.7357 60.0784 37.2412 59.7479 36.6776 59.5062C36.1139 59.2645 35.5058 59.1412 34.8679 59.1412H29.0385V72.2135ZM34.8679 66.1312H31.4514V61.2623H34.596C35.0014 61.2623 35.3624 61.3363 35.6689 61.4843C35.9755 61.6323 36.2375 61.8247 36.4452 62.0565C36.6529 62.2884 36.816 62.5597 36.9248 62.8606C37.0336 63.1615 37.0929 63.4674 37.0929 63.7732C37.0929 64.079 37.0484 64.375 36.9644 64.6562C36.8803 64.9374 36.7468 65.1939 36.5639 65.4159C36.3859 65.6379 36.1485 65.8154 35.8667 65.9437C35.5849 66.0621 35.2487 66.1312 34.8679 66.1312ZM31.5651 66.0177H34.8679C35.2289 66.0177 35.5503 65.9536 35.8173 65.8352C36.0843 65.7119 36.3068 65.5441 36.4749 65.3369C36.643 65.1248 36.7715 64.8831 36.8506 64.6167C36.9347 64.3454 36.9742 64.0593 36.9742 63.7683C36.9742 63.4772 36.9199 63.1812 36.816 62.8951C36.7122 62.609 36.5589 62.3525 36.3562 62.1305C36.1584 61.9085 35.9063 61.726 35.6145 61.5879C35.3228 61.4498 34.9767 61.3758 34.5911 61.3758H31.5602V66.0177H31.5651Z" fill="#9C7C56" />
		<path d="M5.59678 130.2C5.54733 129.959 5.4435 129.746 5.28034 129.564C4.9194 129.179 4.34091 129.021 3.81186 129.026C3.25809 129.036 2.63015 129.233 2.27416 129.697C2.06649 129.959 1.98738 130.264 2.01211 130.595C2.16538 132.647 5.46328 131.039 5.86377 132.913C6.13077 134.152 4.94906 134.892 3.83163 134.892C2.97626 134.892 1.93299 134.403 1.83411 133.461L1.82422 133.402L1.95772 133.387L1.96761 133.446C2.06155 134.324 3.04053 134.768 3.84152 134.768C4.86501 134.768 5.97255 134.107 5.73028 132.943C5.3545 131.202 2.03683 132.79 1.88355 130.605C1.84894 130.255 1.94288 129.909 2.16044 129.623C3.01581 128.518 5.43361 128.661 5.72039 130.176L5.73028 130.245L5.60172 130.269L5.59678 130.2Z" fill="#9C7C56" />
		<path d="M3.83183 134.975C2.90229 134.975 1.85408 134.448 1.75025 133.471L1.73047 133.333L2.02713 133.293L2.04691 133.431C2.13096 134.245 3.03578 134.684 3.83677 134.684C4.4746 134.684 5.07287 134.433 5.40414 134.028C5.64641 133.732 5.73047 133.362 5.64641 132.958C5.48325 132.198 4.70204 132.119 3.87138 132.035C2.9369 131.942 1.88374 131.838 1.79969 130.61C1.76508 130.23 1.86397 129.87 2.09141 129.574C2.56607 128.962 3.55989 128.676 4.45976 128.888C5.19153 129.066 5.68102 129.529 5.79969 130.161L5.81947 130.309L5.53269 130.368L5.51292 130.215C5.46347 129.983 5.36458 129.786 5.21625 129.618C4.91465 129.298 4.40538 129.11 3.84666 129.11C3.83183 129.11 3.82194 129.11 3.80711 129.11C3.18411 129.12 2.63529 129.357 2.33368 129.746C2.1458 129.978 2.06669 130.259 2.09141 130.585C2.16557 131.572 3.01601 131.655 3.92083 131.744C4.81576 131.833 5.73541 131.922 5.94308 132.899C6.04691 133.382 5.94802 133.831 5.65136 134.196C5.2657 134.674 4.56854 134.975 3.83183 134.975Z" fill="#9C7C56" />
		<path d="M23.1149 131.799H26.7984V128.977H26.9319V134.832H26.7984V131.927H23.1149V134.832H22.9863V128.977H23.1149V131.799Z" fill="#9C7C56" />
		<path d="M27.0161 134.916H26.7145V132.006H23.1941V134.916H22.9023V128.893H23.1941V131.72H26.7145V128.893H27.0161V134.916Z" fill="#9C7C56" />
		<path d="M44.8254 129.771C45.3644 129.219 46.1159 128.883 46.9416 128.883C47.7723 128.883 48.5189 129.219 49.0677 129.771C49.6066 130.314 49.9478 131.068 49.9478 131.897C49.9478 132.726 49.6017 133.481 49.0677 134.023C48.5238 134.576 47.7772 134.911 46.9416 134.911C46.1208 134.911 45.3644 134.576 44.8254 134.023C44.2865 133.481 43.9453 132.726 43.9453 131.897C43.9453 131.068 44.2914 130.319 44.8254 129.771ZM48.9737 129.875C48.4546 129.347 47.7327 129.021 46.9416 129.021C46.1505 129.021 45.4385 129.347 44.9194 129.875C44.4051 130.393 44.0788 131.108 44.0788 131.902C44.0788 132.696 44.4051 133.412 44.9194 133.93C45.4385 134.457 46.1555 134.783 46.9416 134.783C47.7327 134.783 48.4546 134.457 48.9737 133.93C49.488 133.412 49.8044 132.696 49.8044 131.902C49.8044 131.103 49.488 130.393 48.9737 129.875Z" fill="#9C7C56" />
		<path d="M46.9417 135C46.1259 135 45.3298 134.669 44.7661 134.087C44.1827 133.495 43.8613 132.721 43.8613 131.902C43.8613 131.083 44.1827 130.309 44.7661 129.717C45.3298 129.135 46.1209 128.804 46.9417 128.804C47.7674 128.804 48.5436 129.13 49.1221 129.717C49.7056 130.309 50.027 131.083 50.027 131.902C50.027 132.721 49.7056 133.495 49.1221 134.087C48.5436 134.674 47.7674 135 46.9417 135ZM46.9417 129.1C46.205 129.1 45.5029 129.396 44.9788 129.929C44.4547 130.462 44.1629 131.162 44.1629 131.897C44.1629 132.632 44.4547 133.333 44.9788 133.865C45.5078 134.403 46.205 134.694 46.9417 134.694C47.6883 134.694 48.3854 134.398 48.9145 133.865C49.4336 133.338 49.7204 132.637 49.7204 131.897C49.7204 131.152 49.4336 130.457 48.9145 129.929C48.3904 129.396 47.6883 129.1 46.9417 129.1Z" fill="#9C7C56" />
		<path d="M66.9766 128.967H67.0458H69.0087C71.3573 128.967 71.3573 132.603 69.0087 132.603H67.1101V134.832H66.9766C66.9766 132.899 66.9766 130.97 66.9766 129.036V128.967ZM69.0087 132.479C71.1892 132.479 71.1892 129.105 69.0087 129.105H67.1101V132.479H69.0087Z" fill="#9C7C56" />
		<path d="M67.1942 134.916H66.8926V128.888H69.0088C70.2745 128.888 70.853 129.875 70.853 130.787C70.853 131.705 70.2745 132.686 69.0088 132.686H67.1942V134.916ZM67.1942 132.395H69.0088C69.4884 132.395 69.8938 132.223 70.1756 131.897C70.4278 131.606 70.5663 131.211 70.5663 130.792C70.5663 130.018 70.0817 129.184 69.0137 129.184H67.1991V132.395H67.1942Z" fill="#9C7C56" />
		<path d="M61.9034 26.6971C59.1938 26.6971 56.9985 24.5069 56.9985 21.8036V0H66.8082V21.8036C66.8082 24.5069 64.6129 26.6971 61.9034 26.6971ZM61.9034 24.0876C63.1642 24.0876 64.1926 23.0665 64.1926 21.8036L64.3261 2.45168H59.446L59.6191 21.8036C59.6191 23.0665 60.6425 24.0876 61.9034 24.0876Z" fill="#9C7C56" />
		<path d="M63.2432 25.0396H60.9639V55.5202H63.2432V25.0396Z" fill="#9C7C56" />
		<path d="M62.002 56.5908C61.2999 56.5316 60.9093 55.9347 60.9588 55.3526C61.0181 54.6817 61.6114 54.292 62.1652 54.3413C62.8376 54.4005 63.2876 54.9678 63.2381 55.5548C63.2233 55.7028 63.1837 55.8459 63.1145 55.9544C62.8772 56.4033 62.4421 56.6302 62.002 56.5908Z" fill="#9C7C56" />
		<path d="M53.2063 63.1664C53.1519 63.7781 52.608 64.2615 51.9356 64.2024C51.3818 64.153 50.8627 63.6696 50.922 62.9938C50.9764 62.3821 51.4906 61.8691 52.163 61.9283C52.6327 61.9677 53.0431 62.2982 53.1519 62.7521C53.2013 62.9001 53.2162 63.048 53.2063 63.1664ZM51.6636 67.6801C50.9615 67.6209 50.5759 66.9697 50.6253 66.4123C50.6847 65.7414 51.3077 65.3567 51.8614 65.4011C52.5339 65.4603 52.9541 66.0571 52.9047 66.6096C52.8899 66.7576 52.8503 66.9007 52.7761 67.0388C52.5339 67.463 52.0988 67.7195 51.6636 67.6801ZM54.6006 59.9945C54.5512 60.547 54.032 61.0946 53.3596 61.0354C52.7761 60.9861 52.2619 60.4385 52.3213 59.7676C52.3707 59.1855 52.9146 58.7021 53.587 58.7613C54.0271 58.8008 54.4424 59.1017 54.5512 59.5506C54.6006 59.6986 54.6154 59.8466 54.6006 59.9945ZM52.4894 71.0444C51.8169 70.9852 51.3967 70.4179 51.4461 69.8062C51.5054 69.1353 52.074 68.716 52.6575 68.7653C53.3299 68.8245 53.7798 69.4214 53.7255 70.0035C53.7106 70.1515 53.6711 70.2649 53.6018 70.4031C53.4189 70.8322 52.9541 71.0838 52.4894 71.0444ZM56.7366 57.533C56.6772 58.2039 56.168 58.6331 55.4955 58.5739C54.9418 58.5245 54.388 58.0658 54.4523 57.3653C54.5017 56.8128 55.0209 56.2652 55.6933 56.3244C56.1334 56.3639 56.519 56.6599 56.6871 57.1186C56.7267 57.2666 56.7465 57.4146 56.7366 57.533ZM54.1309 73.8068C53.4585 73.7476 53.0728 73.0965 53.1222 72.544C53.1816 71.8731 53.7749 71.4834 54.3287 71.5327C55.0011 71.5919 55.451 72.1592 55.4016 72.7709C55.3868 72.9189 55.3472 73.0619 55.278 73.1705C55.0357 73.5898 54.5709 73.8463 54.1309 73.8068ZM59.7873 55.9742C59.7378 56.5316 59.2483 57.0742 58.5759 57.015C58.0172 56.9657 57.4387 56.507 57.498 55.8311C57.5475 55.2491 58.0419 54.6719 58.7143 54.7311C59.2137 54.7755 59.5994 55.0715 59.7625 55.5598C59.7823 55.7078 59.8021 55.8311 59.7873 55.9742ZM56.8997 75.8688C56.2273 75.8096 55.807 75.2423 55.8565 74.6306C55.9158 73.9301 56.5437 73.5454 57.0975 73.5898C57.77 73.6489 58.1902 74.2458 58.1358 74.8575C58.1259 74.9463 58.0864 75.0894 58.0419 75.2324C57.7996 75.6863 57.3695 75.9132 56.8997 75.8688ZM62.0023 56.6105C61.3002 56.5514 60.9096 55.9545 60.9591 55.3724C61.0184 54.7015 61.6117 54.3118 62.1655 54.3611C62.8379 54.4203 63.2879 54.9876 63.2384 55.5746C63.2236 55.7226 63.184 55.8657 63.1148 55.9742C62.8775 56.4182 62.4424 56.6451 62.0023 56.6105ZM61.4733 75.8293C61.4238 76.3867 60.9047 76.9294 60.2323 76.8702C59.6785 76.8208 59.1297 76.3325 59.189 75.6616C59.2434 75.0499 59.7576 74.532 60.43 74.5911C60.8997 74.6306 61.3101 74.9611 61.4189 75.4149C61.4683 75.5629 61.4832 75.7109 61.4733 75.8293ZM64.5388 55.9495C64.5882 55.3674 65.1074 54.8495 65.7798 54.9087C66.4523 54.9679 66.8775 55.5056 66.8182 56.1764C66.7588 56.8473 66.2545 57.2469 65.5821 57.1877C65.0234 57.1384 64.5932 56.7191 64.5536 56.1567C64.524 56.1222 64.5289 56.0334 64.5388 55.9495ZM62.8033 75.7948C62.8577 75.1831 63.3719 74.6947 64.0444 74.7539C64.7168 74.8131 65.142 75.3508 65.0827 76.0513C65.0332 76.6038 64.524 77.0626 63.8515 77.0034C63.2928 76.954 62.8577 76.5643 62.8182 76.002C62.7885 75.9724 62.7934 75.8836 62.8033 75.7948ZM66.1111 74.7293C66.1655 74.1176 66.7341 73.6687 67.3472 73.718C67.9603 73.7723 68.4449 74.3149 68.3855 74.9858C68.3361 75.5679 67.8515 76.0562 67.1494 75.997C66.5957 75.9477 66.1556 75.558 66.1161 74.9956C66.0913 74.9364 66.0963 74.8477 66.1111 74.7293ZM68.9146 56.4428C69.587 56.502 70.0073 57.0989 69.9578 57.6514C69.8985 58.3223 69.2706 58.7662 68.6871 58.7169C68.0147 58.6577 67.5944 58.0608 67.6439 57.5083C67.6636 57.3061 67.7378 57.1038 67.8713 56.9115C68.1086 56.5514 68.4795 56.4083 68.9146 56.4428ZM68.5833 72.7413C68.6377 72.1296 69.2112 71.6215 69.8293 71.6758C70.5017 71.735 70.9566 72.2727 70.8973 72.9435C70.8429 73.5552 70.3633 74.014 69.6315 73.9499C69.0728 73.9005 68.6377 73.5108 68.5981 72.9485C68.5685 72.9139 68.5734 72.8301 68.5833 72.7413ZM71.2582 58.9734C71.9306 59.0326 72.3509 59.5999 72.3064 60.1524C72.2471 60.8233 71.6439 61.3018 71.0604 61.2475C70.388 61.1883 69.9677 60.5914 70.0172 60.0389C70.0369 59.8367 70.1111 59.6344 70.2446 59.4421C70.4819 59.082 70.8231 58.934 71.2582 58.9734ZM70.5166 69.821C70.566 69.2389 71.1148 68.7259 71.7873 68.7851C72.3707 68.8344 72.8899 69.3228 72.8305 70.0232C72.7712 70.6941 72.2026 71.1134 71.5301 71.0592C70.9764 71.0098 70.566 70.6201 70.5314 70.0331C70.5017 69.9936 70.5116 69.9098 70.5166 69.821ZM72.3855 61.9529C73.058 62.0121 73.5079 62.609 73.4535 63.1911C73.3942 63.862 72.7959 64.3109 72.2421 64.2616C71.5697 64.2024 71.1247 63.5759 71.1742 62.9938C71.189 62.8162 71.2681 62.6189 71.4016 62.4265C71.6389 62.0664 71.9751 61.9184 72.3855 61.9529ZM72.6426 65.4159C73.3151 65.4751 73.765 66.0719 73.7106 66.6836C73.6513 67.3545 73.058 67.7442 72.4449 67.6899C71.7724 67.6308 71.3522 67.0339 71.4016 66.4518C71.4164 66.2791 71.4955 66.0769 71.629 65.8845C71.9257 65.5293 72.2669 65.3567 72.6426 65.4159Z" fill="#FBB03B" />
	</g>
	<defs>
		<clipPath id="clip0_519_9734">
			<rect width="76" height="135" fill="white" />
		</clipPath>
	</defs>
</svg>