<svg width="76" height="135" viewBox="0 0 76 135" fill="none" xmlns="http://www.w3.org/2000/svg">
<g clip-path="url(#clip0_723_7492)">
<path d="M1.1471 87.6191C1.85414 87.6191 2.32386 88.1469 2.32386 88.7635C2.32386 89.4985 1.76514 89.9376 1.1471 89.9376C0.444994 89.9376 0 89.4097 0 88.8523C0 88.7043 0.0296663 88.5317 0.0889988 88.3541C0.23733 87.9151 0.677379 87.6191 1.1471 87.6191ZM1.46848 102.596C2.17058 102.596 2.67491 103.123 2.67491 103.74C2.67491 104.416 2.11619 104.944 1.52781 104.944C0.7911 104.944 0.291718 104.357 0.291718 103.77C0.291718 103.622 0.321384 103.479 0.380717 103.331C0.588381 102.887 0.998764 102.596 1.46848 102.596ZM1.67614 90.9044C2.41286 90.9044 2.88257 91.4322 2.88257 91.9897C2.88257 92.7789 2.20519 93.2476 1.65142 93.2476C0.914709 93.2476 0.47466 92.6902 0.47466 92.1327C0.47466 91.9255 0.504326 91.8121 0.593325 91.6641C0.7911 91.1955 1.20643 90.9044 1.67614 90.9044ZM3.46601 85.0145C4.14339 85.0145 4.64277 85.5719 4.64277 86.1293C4.64277 86.9186 4.05439 87.3872 3.49567 87.3872C2.70457 87.3872 2.28925 86.7706 2.28925 86.2132C2.28925 86.0652 2.31891 85.9221 2.37824 85.7742C2.58591 85.3055 2.99629 85.0145 3.46601 85.0145ZM4.49444 93.0404C5.17182 93.0404 5.64153 93.5682 5.64153 94.1552C5.64153 94.8557 5.17182 95.3293 4.49444 95.3293C3.79234 95.3293 3.31768 94.7719 3.31768 94.1848C3.31768 94.0664 3.34734 93.9234 3.40667 93.7754C3.55501 93.3068 4.02472 93.0404 4.49444 93.0404ZM4.81582 104.031C5.4932 104.031 5.99258 104.618 5.99258 105.205C5.99258 105.906 5.4042 106.409 4.84549 106.409C4.16811 106.409 3.66873 105.91 3.66873 105.323C3.66873 105.116 3.69839 104.944 3.78739 104.796C3.93572 104.352 4.34611 104.031 4.81582 104.031ZM7.02101 84.166C7.63906 84.166 8.13844 84.6938 8.13844 85.2809C8.13844 85.9567 7.60939 86.4845 6.93202 86.4845C6.25464 86.4845 5.78492 85.9271 5.78492 85.3401C5.78492 85.1921 5.81459 85.049 5.87392 84.901C6.08158 84.4275 6.52163 84.166 7.02101 84.166ZM7.99011 94.0073C8.66749 94.0073 9.19654 94.5351 9.19654 95.1221C9.19654 95.7387 8.63782 96.2961 8.01978 96.2961C7.3424 96.2961 6.87268 95.7979 6.87268 95.2109C6.87268 95.0629 6.90235 94.9198 6.96168 94.7719C7.10507 94.2144 7.5204 94.0073 7.99011 94.0073ZM8.66255 104.44C9.33993 104.44 9.77998 104.998 9.77998 105.614C9.77998 106.315 9.19159 106.759 8.57355 106.759C7.89617 106.759 7.42645 106.231 7.42645 105.644C7.42645 105.496 7.45612 105.353 7.51545 105.205C7.72311 104.731 8.16316 104.44 8.66255 104.44ZM10.4574 84.4867C11.1347 84.4867 11.5748 85.0441 11.5748 85.6311C11.5748 86.3069 11.0457 86.8347 10.4574 86.8347C9.77998 86.8347 9.28059 86.3069 9.28059 85.7199C9.28059 85.5719 9.31026 85.4289 9.36959 85.2809C9.57231 84.7777 9.98764 84.4867 10.4574 84.4867ZM11.4561 95.1813C12.1928 95.1813 12.6032 95.7683 12.6032 96.2665C12.6032 97.0015 12.0742 97.4998 11.3968 97.4998C10.7194 97.4998 10.2794 96.9424 10.2794 96.3257C10.2794 96.1777 10.309 96.0347 10.3684 95.8867C10.5711 95.4427 10.9815 95.1813 11.4561 95.1813ZM12.1879 103.414C12.8653 103.414 13.3053 103.972 13.3053 104.588C13.3053 105.264 12.7763 105.792 12.0989 105.792C11.4215 105.792 10.9815 105.235 10.9815 104.618C10.9815 104.47 11.0111 104.327 11.0705 104.179C11.2188 103.705 11.6885 103.414 12.1879 103.414ZM13.7157 86.2428C14.5068 86.2428 14.9518 86.8298 14.9518 87.3872C14.9518 88.0877 14.3634 88.5613 13.7454 88.5613C13.0383 88.5613 12.5983 88.0039 12.5983 87.4168C12.5983 87.2392 12.6279 87.0962 12.6576 87.0074C12.8653 86.5092 13.2163 86.2428 13.7157 86.2428ZM14.1261 97.3469C14.8282 97.3469 15.3028 97.9043 15.3028 98.4913C15.3028 99.1967 14.8035 99.6949 14.1261 99.6949C13.419 99.6949 12.9493 99.1967 12.9493 98.5801C12.9493 98.4321 12.979 98.2595 13.0383 98.0819C13.1867 97.6428 13.6267 97.3469 14.1261 97.3469ZM14.5365 100.662C15.2138 100.662 15.7132 101.19 15.7132 101.777C15.7132 102.452 15.2435 103.01 14.5661 103.01C13.775 103.01 13.335 102.452 13.335 101.865C13.335 101.717 13.3646 101.574 13.424 101.426C13.6267 100.953 14.0667 100.662 14.5365 100.662Z" fill="white"/>
<path d="M20.3214 85.5422C20.3214 86.1588 19.8517 86.5683 19.293 86.6571C18.5563 86.6571 18.0569 86.1884 18.0569 85.483C18.0569 84.8664 18.4969 84.457 19.115 84.3682C19.733 84.3682 20.2917 84.7184 20.3214 85.3942V85.5422ZM21.7009 88.4428C21.7009 89.1186 21.1718 89.528 20.4945 89.528C19.9061 89.528 19.5254 89.089 19.4364 88.4724C19.4364 87.7966 19.9061 87.2687 20.6131 87.2687C21.2312 87.2687 21.6712 87.7374 21.7009 88.2948V88.4428V88.4428ZM23.0804 91.3434C23.0804 92.0192 22.581 92.399 21.8739 92.399C21.3152 92.399 20.9048 91.96 20.8158 91.3434C20.8158 90.7267 21.1669 90.1989 21.8443 90.1101C22.5217 90.1101 23.0507 90.49 23.0754 91.1658V91.3434H23.0804ZM23.288 95.2996C22.7293 95.2996 22.2893 94.8605 22.2003 94.2439C22.2003 93.5434 22.67 93.0156 23.377 93.0156C23.9654 93.0156 24.4055 93.5138 24.4945 94.0713C24.4895 94.7422 24.0791 95.2996 23.288 95.2996ZM24.6675 98.1706C24.0495 98.1706 23.5798 97.6131 23.5798 96.9965C23.5798 96.3799 24.1088 95.8817 24.7862 95.8817C25.3746 95.8817 25.7849 96.3799 25.8739 96.9373C25.8739 97.6427 25.4586 98.1706 24.6675 98.1706ZM26.1953 101.071C25.4932 101.071 24.9642 100.602 24.9642 99.8971C24.9642 99.2213 25.4932 98.7822 26.1706 98.7822C26.7293 98.7822 27.1694 99.2213 27.2584 99.8379C27.2534 100.455 26.8974 100.982 26.1953 101.071ZM28.5142 102.857C28.5142 103.473 27.9852 103.942 27.3078 103.942C26.6304 103.942 26.22 103.414 26.22 102.738C26.22 102.122 26.7491 101.653 27.4265 101.653C27.9852 101.653 28.4252 102.092 28.5142 102.709V102.857ZM28.895 104.352C29.4833 104.352 30.0124 104.879 30.0124 105.437C30.0124 106.113 29.4833 106.611 28.9246 106.611C28.2176 106.611 27.7182 106.231 27.7182 105.555V105.378C27.8072 104.791 28.3066 104.352 28.895 104.352ZM30.3338 101.658C31.0111 101.658 31.5649 102.068 31.5649 102.743C31.5649 103.419 31.0655 103.947 30.4475 103.947C29.7701 103.947 29.2707 103.478 29.2707 102.862V102.714C29.3647 102.097 29.7454 101.658 30.3338 101.658ZM31.5402 98.7822C32.2176 98.7822 32.7466 99.1917 32.7466 99.8675C32.7466 100.543 32.2769 101.071 31.5995 101.071C30.9221 101.071 30.4821 100.543 30.4821 99.9859V99.8379C30.5711 99.2213 30.9518 98.7822 31.5402 98.7822ZM32.9493 95.8817C33.5674 95.8817 34.1261 96.3799 34.1261 96.9669C34.1261 97.6427 33.7157 98.1706 33.0383 98.1706C32.361 98.1706 31.8616 97.7019 31.8616 97.0853V96.9373C31.9506 96.3799 32.361 95.8817 32.9493 95.8817ZM34.3288 93.0107C34.9469 93.0107 35.5056 93.4201 35.5056 94.0959C35.5056 94.7964 35.0952 95.2996 34.4178 95.2996C33.6811 95.2996 33.2411 94.7422 33.2411 94.0663C33.3301 93.5089 33.7404 93.0107 34.3288 93.0107ZM34.7095 91.2842C34.7095 90.6083 35.2683 90.1397 35.8566 90.1397C36.534 90.1397 36.9741 90.7563 36.9741 91.3138C36.9741 91.9896 36.356 92.4286 35.7973 92.4286C35.6193 92.4286 35.5056 92.399 35.4166 92.3694C34.9765 92.1622 34.7095 91.7232 34.7095 91.2842ZM37.0878 87.2687C37.8245 87.2687 38.2942 87.8262 38.2942 88.4132C38.2942 89.089 37.7652 89.528 37.1768 89.528C36.4401 89.528 36 89.0002 36 88.2948C36.089 87.7374 36.534 87.2687 37.0878 87.2687ZM38.5563 84.3682C39.2336 84.3682 39.6737 84.9552 39.6737 85.5669C39.6737 86.1835 39.115 86.6521 38.4969 86.6521C37.9086 86.6521 37.3795 86.1243 37.3795 85.5373V85.3893C37.4734 84.8072 37.9728 84.3682 38.5563 84.3682Z" fill="white"/>
<path d="M43.6045 84.6296C44.2819 84.6296 44.7516 85.1871 44.7516 85.7741C44.7516 86.4499 44.1929 86.9185 43.6045 86.9185C42.9271 86.9185 42.4574 86.3611 42.4574 85.7445C42.4574 85.6261 42.4277 85.483 42.5167 85.3647C42.7244 84.9256 43.1397 84.6296 43.6045 84.6296ZM43.6045 88.0038C44.2819 88.0038 44.7516 88.5612 44.7516 89.1482C44.7516 89.824 44.1929 90.2927 43.6045 90.2927C42.9271 90.2927 42.4574 89.7648 42.4574 89.1482C42.4574 89.0298 42.4871 88.8868 42.5464 88.7388C42.6947 88.2948 43.1397 88.0038 43.6045 88.0038ZM43.6045 91.2546C44.2819 91.2546 44.7516 91.812 44.7516 92.399C44.7516 93.0749 44.1929 93.5435 43.6045 93.5435C42.9271 93.5435 42.4574 93.0157 42.4574 92.399C42.4574 92.2806 42.4871 92.1376 42.5464 91.9896C42.6947 91.5456 43.1397 91.2546 43.6045 91.2546ZM43.6391 94.4462C44.3165 94.4462 44.7565 95.0036 44.7565 95.5907C44.7565 96.2665 44.1978 96.7351 43.6094 96.7351C42.932 96.7351 42.4623 96.1777 42.4623 95.5907C42.4623 95.4723 42.492 95.3292 42.5513 95.1812C42.6947 94.7126 43.1644 94.4462 43.6391 94.4462ZM43.6391 97.7316C44.3165 97.7316 44.7565 98.289 44.7565 98.8464C44.7565 99.5222 44.2275 100.02 43.6094 100.02C42.932 100.02 42.4623 99.463 42.4623 98.876C42.4623 98.7576 42.492 98.6146 42.5513 98.4666C42.6947 97.993 43.1644 97.7316 43.6391 97.7316ZM43.6045 100.982C44.2819 100.982 44.7516 101.54 44.7516 102.127C44.7516 102.803 44.1929 103.271 43.6045 103.271C42.9271 103.271 42.4574 102.743 42.4574 102.127C42.4574 102.008 42.4871 101.865 42.5464 101.717C42.6947 101.273 43.1397 100.982 43.6045 100.982ZM43.6045 104.085C44.2819 104.085 44.7516 104.643 44.7516 105.23C44.7516 105.905 44.1929 106.374 43.5748 106.374C42.8974 106.374 42.4574 105.817 42.4574 105.23C42.4574 105.111 42.4871 104.968 42.5464 104.82C42.6947 104.381 43.1397 104.085 43.6045 104.085ZM46.8381 84.605C47.5155 84.605 47.9555 85.192 47.9555 85.7494C47.9555 86.4252 47.3968 86.8939 46.8381 86.8939C46.1607 86.8939 45.691 86.3069 45.691 85.7198C45.691 85.6014 45.6613 85.4584 45.7503 85.34C45.958 84.8664 46.3684 84.605 46.8381 84.605ZM46.8381 94.387C47.5155 94.387 47.9555 94.974 47.9555 95.5611C47.9555 96.2369 47.3968 96.6759 46.8381 96.6759C46.1607 96.6759 45.691 96.0889 45.691 95.5019C45.691 95.3835 45.6613 95.2404 45.7503 95.122C45.958 94.6534 46.3684 94.387 46.8381 94.387ZM46.8084 104.061C47.4858 104.061 47.9555 104.618 47.9555 105.235C47.9555 105.91 47.3968 106.349 46.8381 106.349C46.1607 106.349 45.691 105.792 45.691 105.175C45.691 105.057 45.6613 104.914 45.7503 104.796C45.958 104.292 46.3091 104.061 46.8084 104.061ZM50.1558 84.605C50.8332 84.605 51.2732 85.1624 51.2732 85.7198C51.2732 86.3956 50.7145 86.8939 50.1261 86.8939C49.4487 86.8939 48.979 86.3364 48.979 85.7494C48.979 85.631 49.0087 85.488 49.068 85.34C49.2163 84.8664 49.6861 84.605 50.1558 84.605ZM50.1558 94.387C50.8332 94.387 51.2732 94.9444 51.2732 95.5019C51.2732 96.1777 50.7442 96.6759 50.1261 96.6759C49.4487 96.6759 48.979 96.1185 48.979 95.5315C48.979 95.4131 49.0087 95.27 49.068 95.122C49.2163 94.6534 49.6861 94.387 50.1558 94.387ZM50.1261 104.061C50.8035 104.061 51.2732 104.618 51.2732 105.205C51.2732 105.881 50.7145 106.349 50.1261 106.349C49.4487 106.349 48.979 105.822 48.979 105.205C48.979 105.087 49.0087 104.944 49.068 104.796C49.2163 104.352 49.6564 104.061 50.1261 104.061ZM53.4735 84.605C54.1508 84.605 54.5909 85.192 54.5909 85.7494C54.5909 86.4252 54.0025 86.8939 53.4438 86.8939C52.7664 86.8939 52.2967 86.3364 52.2967 85.7494C52.2967 85.631 52.3264 85.488 52.3857 85.34C52.5934 84.8664 53.0037 84.605 53.4735 84.605ZM53.4735 94.387C54.1508 94.387 54.5909 94.974 54.5909 95.5611C54.5909 96.2369 54.0322 96.6759 53.4438 96.6759C52.7664 96.6759 52.2967 96.1185 52.2967 95.5315C52.2967 95.4131 52.3264 95.27 52.3857 95.122C52.5934 94.6534 53.0037 94.387 53.4735 94.387ZM53.4438 104.061C54.1212 104.061 54.5909 104.618 54.5909 105.235C54.5909 105.91 54.0322 106.349 53.4438 106.349C52.7664 106.349 52.2967 105.822 52.2967 105.205C52.2967 105.087 52.3264 104.944 52.3857 104.796C52.5934 104.292 52.9444 104.061 53.4438 104.061ZM56.6477 84.605C57.3251 84.605 57.7948 85.192 57.7948 85.7494C57.7948 86.4252 57.2065 86.8939 56.6477 86.8939C55.9704 86.8939 55.5006 86.3069 55.5006 85.7198C55.5006 85.6014 55.471 85.4584 55.56 85.34C55.7676 84.8664 56.178 84.605 56.6477 84.605ZM56.6477 94.387C57.3251 94.387 57.7948 94.9444 57.7948 95.5315C57.7948 96.2073 57.2065 96.6759 56.6477 96.6759C55.9704 96.6759 55.5006 96.0889 55.5006 95.5019C55.5006 95.3835 55.471 95.2404 55.56 95.122C55.7676 94.6534 56.178 94.387 56.6477 94.387ZM56.6181 104.061C57.2955 104.061 57.7948 104.618 57.7948 105.205C57.7948 105.881 57.2065 106.349 56.6477 106.349C55.9704 106.349 55.5006 105.792 55.5006 105.175C55.5006 105.057 55.471 104.914 55.56 104.796C55.7676 104.292 56.1187 104.061 56.6181 104.061Z" fill="white"/>
<path d="M61.3745 84.5755C62.0519 84.5755 62.5216 85.1329 62.5216 85.7495C62.5216 86.455 61.9332 86.8348 61.3745 86.8348C60.6724 86.8348 60.2274 86.2478 60.2274 85.6903C60.2274 85.572 60.1977 85.4289 60.2867 85.3105C60.4895 84.8665 60.9048 84.5755 61.3745 84.5755ZM64.6328 84.5755C65.3102 84.5755 65.7799 85.1329 65.7799 85.7199C65.7799 86.3958 65.2212 86.8348 64.6625 86.8348C63.9555 86.8348 63.4857 86.2774 63.4857 85.7199C63.4857 85.6016 63.5154 85.4585 63.5747 85.3105C63.7231 84.8665 64.1631 84.5755 64.6328 84.5755ZM68.0988 84.5459C68.7762 84.5459 69.2459 85.1033 69.2459 85.6903C69.2459 86.3662 68.6872 86.8052 68.0988 86.8052C67.4215 86.8052 66.9518 86.2774 66.9518 85.6903C66.9518 85.572 66.9814 85.4289 67.0408 85.2809C67.1891 84.8369 67.6291 84.5459 68.0988 84.5459ZM68.1285 87.9151C68.8059 87.9151 69.2459 88.4725 69.2459 89.0299C69.2459 89.7058 68.7169 90.1744 68.0988 90.1744C67.4215 90.1744 66.9518 89.6466 66.9518 89.0595C66.9518 88.9116 66.9814 88.7685 67.0408 88.6205C67.1891 88.1765 67.6588 87.9151 68.1285 87.9151ZM68.0988 91.1659C68.7762 91.1659 69.2459 91.6937 69.2459 92.2808C69.2459 92.9566 68.6872 93.4548 68.0988 93.4548C67.4215 93.4548 66.9518 92.8974 66.9518 92.3104C66.9518 92.192 66.9814 92.0489 67.0408 91.9009C67.1891 91.457 67.6291 91.1659 68.0988 91.1659ZM68.0988 94.3329C68.7762 94.3329 69.2459 94.9199 69.2459 95.4773C69.2459 96.1531 68.6872 96.6514 68.0988 96.6514C67.4215 96.6514 66.9518 96.0939 66.9518 95.5069C66.9518 95.3885 66.9814 95.2455 67.0408 95.0975C67.1891 94.6239 67.6588 94.3329 68.0988 94.3329ZM68.0988 97.6133C68.7762 97.6133 69.2459 98.2003 69.2459 98.7873C69.2459 99.4631 68.6872 99.9022 68.1285 99.9022C67.4215 99.9022 66.9814 99.3743 66.9814 98.7873C66.9814 98.6097 67.0111 98.4667 67.0408 98.3779C67.2484 97.9043 67.6588 97.6133 68.0988 97.6133ZM68.0988 100.894C68.7762 100.894 69.2459 101.451 69.2459 102.068C69.2459 102.744 68.6872 103.153 68.0988 103.153C67.3967 103.153 66.9814 102.596 66.9814 102.038C66.9814 101.861 67.0111 101.717 67.0408 101.629C67.2484 101.185 67.6588 100.894 68.0988 100.894ZM68.0988 104.001C68.7762 104.001 69.2459 104.588 69.2459 105.146C69.2459 105.822 68.6872 106.29 68.1285 106.29C67.4215 106.29 66.9814 105.733 66.9814 105.146C66.9814 104.968 67.0111 104.825 67.0408 104.736C67.2484 104.292 67.6588 104.001 68.0988 104.001ZM71.5649 84.5755C72.2422 84.5755 72.7416 85.1033 72.7416 85.7199C72.7416 86.4204 72.1532 86.8348 71.5945 86.8348C70.9171 86.8348 70.4474 86.307 70.4474 85.7199C70.4474 85.6016 70.4771 85.4585 70.5364 85.3105C70.6848 84.8665 71.0951 84.5755 71.5649 84.5755ZM74.8529 84.5755C75.5302 84.5755 76 85.1329 76 85.7199C76 86.3958 75.4412 86.8348 74.8529 86.8348C74.1755 86.8348 73.7058 86.307 73.7058 85.7199C73.7058 85.6016 73.7354 85.4585 73.7948 85.3105C74.0024 84.8073 74.3535 84.5755 74.8529 84.5755Z" fill="white"/>
<path d="M14.754 59.082V72.2678H12.2422V61.3364H5.71072V72.2678H3.19897V59.082H14.754Z" fill="white"/>
<path d="M14.8133 72.3271H12.1878V61.3956H5.76505V72.3271H3.14453V59.0278H14.8133V72.3271ZM12.3015 72.2136H14.6995V59.1413H3.25825V72.2136H5.65627V61.2822H12.3065V72.2136H12.3015Z" fill="white"/>
<path d="M34.8677 59.082C35.5154 59.082 36.1285 59.2054 36.7021 59.452C37.2756 59.6986 37.77 60.0292 38.1903 60.4534C38.6106 60.8727 38.9468 61.3709 39.194 61.9382C39.4412 62.5104 39.5648 63.1172 39.5648 63.7683C39.5648 64.4146 39.4561 65.0164 39.2385 65.5689C39.021 66.1213 38.7045 66.6048 38.2793 67.0191C37.859 67.4335 37.3251 67.7591 36.6823 67.9909C36.0395 68.2228 35.2929 68.3412 34.4524 68.3412H31.5105V72.2678H28.9839V59.082H34.8677V59.082ZM34.8677 66.072C35.2385 66.072 35.5649 66.0079 35.8417 65.8846C36.1186 65.7563 36.3461 65.5886 36.5191 65.3715C36.6922 65.1545 36.8207 64.9078 36.9097 64.6316C36.9938 64.3554 37.0383 64.0692 37.0383 63.7683C37.0383 63.4674 36.9839 63.1714 36.8751 62.8755C36.7663 62.5795 36.6081 62.318 36.4054 62.0911C36.2027 61.8642 35.9456 61.6768 35.6489 61.5337C35.3473 61.3907 35.0012 61.3167 34.6007 61.3167H31.5154V66.072H34.8677Z" fill="white"/>
<path d="M31.5649 72.3271H28.9246V59.0278H34.8677C35.5204 59.0278 36.1433 59.1561 36.7218 59.4027C37.2954 59.6494 37.8047 59.9898 38.2299 60.414C38.6551 60.8382 38.9963 61.3414 39.2435 61.9185C39.4907 62.4957 39.6192 63.1172 39.6192 63.7684C39.6192 64.4195 39.5105 65.0362 39.288 65.5887C39.0704 66.1461 38.7441 66.6394 38.3189 67.0587C37.8937 67.478 37.3498 67.8085 36.7021 68.0453C36.0544 68.282 35.2979 68.4004 34.4524 68.4004H31.5649V72.3271ZM29.0383 72.2136H31.4511V68.287H34.4524C35.283 68.287 36.0296 68.1686 36.6625 67.9367C37.2954 67.7049 37.8244 67.3842 38.2398 66.9797C38.6551 66.5752 38.9715 66.0918 39.1841 65.5492C39.3967 65.0066 39.5055 64.4097 39.5055 63.7684C39.5055 63.132 39.3819 62.5253 39.1396 61.9629C38.8974 61.4006 38.5661 60.9073 38.1508 60.4929C37.7354 60.0785 37.241 59.748 36.6773 59.5063C36.1137 59.2646 35.5055 59.1413 34.8677 59.1413H29.0383V72.2136ZM34.8677 66.1313H31.4511V61.2625H34.5958C35.0012 61.2625 35.3621 61.3364 35.6687 61.4844C35.9752 61.6324 36.2373 61.8248 36.445 62.0567C36.6526 62.2885 36.8158 62.5598 36.9246 62.8607C37.0333 63.1616 37.0927 63.4675 37.0927 63.7733C37.0927 64.0792 37.0482 64.3751 36.9641 64.6563C36.8801 64.9375 36.7466 65.194 36.5636 65.416C36.3856 65.638 36.1483 65.8156 35.8665 65.9438C35.5846 66.0622 35.2484 66.1313 34.8677 66.1313ZM31.5649 66.0178H34.8677C35.2286 66.0178 35.55 65.9537 35.817 65.8353C36.084 65.712 36.3065 65.5443 36.4746 65.3371C36.6427 65.125 36.7713 64.8832 36.8504 64.6169C36.9344 64.3455 36.974 64.0594 36.974 63.7684C36.974 63.4774 36.9196 63.1814 36.8158 62.8953C36.712 62.6091 36.5587 62.3526 36.356 62.1307C36.1582 61.9087 35.906 61.7262 35.6143 61.588C35.3226 61.4499 34.9765 61.3759 34.5908 61.3759H31.5599V66.0178H31.5649Z" fill="white"/>
<path d="M5.59702 130.2C5.54758 129.958 5.44375 129.746 5.28058 129.564C4.91964 129.179 4.34115 129.021 3.8121 129.026C3.25833 129.036 2.6304 129.233 2.2744 129.697C2.06674 129.958 1.98763 130.264 2.01235 130.595C2.16562 132.647 5.46352 131.039 5.86402 132.913C6.13101 134.151 4.94931 134.891 3.83188 134.891C2.9765 134.891 1.93324 134.403 1.83435 133.461L1.82446 133.401L1.95796 133.387L1.96785 133.446C2.06179 134.324 3.04078 134.768 3.84177 134.768C4.86525 134.768 5.97279 134.107 5.73052 132.943C5.35475 131.201 2.03707 132.79 1.8838 130.604C1.84918 130.254 1.94313 129.909 2.16068 129.623C3.01606 128.518 5.43386 128.661 5.72063 130.175L5.73052 130.244L5.60197 130.269L5.59702 130.2Z" fill="white"/>
<path d="M3.83183 134.975C2.90229 134.975 1.85408 134.447 1.75025 133.471L1.73047 133.332L2.02713 133.293L2.04691 133.431C2.13096 134.245 3.03578 134.684 3.83677 134.684C4.4746 134.684 5.07287 134.432 5.40414 134.028C5.64641 133.732 5.73047 133.362 5.64641 132.958C5.48325 132.198 4.70204 132.119 3.87138 132.035C2.9369 131.941 1.88374 131.838 1.79969 130.609C1.76508 130.23 1.86397 129.87 2.09141 129.574C2.56607 128.962 3.55989 128.676 4.45976 128.888C5.19153 129.065 5.68102 129.529 5.79969 130.161L5.81947 130.309L5.53269 130.368L5.51292 130.215C5.46347 129.983 5.36458 129.786 5.21625 129.618C4.91465 129.297 4.40538 129.11 3.84666 129.11C3.83183 129.11 3.82194 129.11 3.80711 129.11C3.18411 129.12 2.63529 129.356 2.33368 129.746C2.1458 129.978 2.06669 130.259 2.09141 130.585C2.16557 131.571 3.01601 131.655 3.92083 131.744C4.81576 131.833 5.73541 131.922 5.94308 132.898C6.04691 133.382 5.94802 133.831 5.65136 134.196C5.2657 134.674 4.56854 134.975 3.83183 134.975Z" fill="white"/>
<path d="M23.1149 131.799H26.7984V128.977H26.9319V134.832H26.7984V131.927H23.1149V134.832H22.9863V128.977H23.1149V131.799Z" fill="white"/>
<path d="M27.0161 134.916H26.7145V132.006H23.1941V134.916H22.9023V128.893H23.1941V131.72H26.7145V128.893H27.0161V134.916Z" fill="white"/>
<path d="M44.8257 129.771C45.3646 129.219 46.1161 128.883 46.9419 128.883C47.7725 128.883 48.5191 129.219 49.0679 129.771C49.6069 130.314 49.948 131.069 49.948 131.897C49.948 132.726 49.6019 133.481 49.0679 134.023C48.524 134.576 47.7775 134.911 46.9419 134.911C46.1211 134.911 45.3646 134.576 44.8257 134.023C44.2867 133.481 43.9456 132.726 43.9456 131.897C43.9456 131.069 44.2917 130.319 44.8257 129.771ZM48.974 129.875C48.4548 129.347 47.733 129.021 46.9419 129.021C46.1508 129.021 45.4388 129.347 44.9196 129.875C44.4054 130.393 44.0791 131.108 44.0791 131.902C44.0791 132.696 44.4054 133.412 44.9196 133.93C45.4388 134.458 46.1557 134.783 46.9419 134.783C47.733 134.783 48.4548 134.458 48.974 133.93C49.4882 133.412 49.8046 132.696 49.8046 131.902C49.8046 131.103 49.4882 130.393 48.974 129.875Z" fill="white"/>
<path d="M46.9419 135C46.1261 135 45.3301 134.669 44.7664 134.087C44.183 133.495 43.8616 132.721 43.8616 131.902C43.8616 131.083 44.183 130.309 44.7664 129.717C45.3301 129.135 46.1212 128.804 46.9419 128.804C47.7676 128.804 48.5439 129.13 49.1224 129.717C49.7058 130.309 50.0272 131.083 50.0272 131.902C50.0272 132.721 49.7058 133.495 49.1224 134.087C48.5439 134.674 47.7676 135 46.9419 135ZM46.9419 129.1C46.2052 129.1 45.5031 129.396 44.979 129.929C44.4549 130.462 44.1632 131.162 44.1632 131.897C44.1632 132.632 44.4549 133.333 44.979 133.865C45.508 134.403 46.2052 134.694 46.9419 134.694C47.6885 134.694 48.3857 134.398 48.9147 133.865C49.4339 133.338 49.7207 132.637 49.7207 131.897C49.7207 131.152 49.4339 130.457 48.9147 129.929C48.3906 129.396 47.6885 129.1 46.9419 129.1Z" fill="white"/>
<path d="M66.9763 128.967H67.0455H69.0085C71.357 128.967 71.357 132.603 69.0085 132.603H67.1098V134.833H66.9763C66.9763 132.899 66.9763 130.97 66.9763 129.036V128.967V128.967ZM69.0085 132.48C71.1889 132.48 71.1889 129.105 69.0085 129.105H67.1098V132.48H69.0085Z" fill="white"/>
<path d="M67.1939 134.916H66.8923V128.888H69.0085C70.2743 128.888 70.8528 129.875 70.8528 130.787C70.8528 131.705 70.2743 132.687 69.0085 132.687H67.1939V134.916ZM67.1939 132.396H69.0085C69.4881 132.396 69.8936 132.223 70.1754 131.897C70.4276 131.606 70.566 131.212 70.566 130.792C70.566 130.018 70.0815 129.184 69.0135 129.184H67.1989V132.396H67.1939Z" fill="white"/>
<path d="M61.9036 26.6971C59.1941 26.6971 56.9988 24.5069 56.9988 21.8036V0H66.8084V21.8036C66.8084 24.5069 64.6131 26.6971 61.9036 26.6971ZM61.9036 24.0876C63.1644 24.0876 64.1928 23.0665 64.1928 21.8036L64.3263 2.45168H59.4462L59.6193 21.8036C59.6193 23.0665 60.6428 24.0876 61.9036 24.0876Z" fill="white"/>
<path d="M63.2435 25.0396H60.9641V55.5202H63.2435V25.0396Z" fill="white"/>
<path d="M62.0025 56.591C61.3004 56.5318 60.9098 55.9349 60.9593 55.3528C61.0186 54.682 61.6119 54.2923 62.1657 54.3416C62.8381 54.4008 63.2881 54.9681 63.2386 55.5551C63.2238 55.7031 63.1842 55.8461 63.115 55.9547C62.8777 56.4036 62.4426 56.6305 62.0025 56.591Z" fill="white"/>
<path d="M53.2065 63.1664C53.1522 63.7781 52.6083 64.2615 51.9358 64.2024C51.3821 64.153 50.8629 63.6696 50.9222 62.9938C50.9766 62.3821 51.4908 61.8691 52.1633 61.9283C52.633 61.9677 53.0434 62.2982 53.1522 62.7521C53.2016 62.9001 53.2164 63.048 53.2065 63.1664ZM51.6639 67.6801C50.9618 67.6209 50.5761 66.9697 50.6256 66.4123C50.6849 65.7414 51.3079 65.3567 51.8617 65.4011C52.5341 65.4603 52.9544 66.0571 52.9049 66.6096C52.8901 66.7576 52.8505 66.9007 52.7764 67.0388C52.5341 67.463 52.099 67.7195 51.6639 67.6801ZM54.6009 59.9945C54.5514 60.547 54.0322 61.0946 53.3598 61.0354C52.7764 60.9861 52.2622 60.4385 52.3215 59.7676C52.3709 59.1855 52.9148 58.7021 53.5873 58.7613C54.0273 58.8008 54.4426 59.1017 54.5514 59.5506C54.6009 59.6986 54.6157 59.8466 54.6009 59.9945ZM52.4896 71.0444C51.8172 70.9852 51.3969 70.4179 51.4463 69.8062C51.5057 69.1353 52.0743 68.716 52.6577 68.7653C53.3301 68.8245 53.7801 69.4214 53.7257 70.0035C53.7109 70.1515 53.6713 70.2649 53.6021 70.4031C53.4191 70.8322 52.9544 71.0838 52.4896 71.0444ZM56.7368 57.533C56.6775 58.2039 56.1682 58.6331 55.4958 58.5739C54.942 58.5245 54.3882 58.0658 54.4525 57.3653C54.502 56.8128 55.0211 56.2652 55.6936 56.3244C56.1336 56.3639 56.5193 56.6599 56.6874 57.1186C56.7269 57.2666 56.7467 57.4146 56.7368 57.533ZM54.1311 73.8068C53.4587 73.7476 53.073 73.0965 53.1225 72.544C53.1818 71.8731 53.7751 71.4834 54.3289 71.5327C55.0013 71.5919 55.4513 72.1592 55.4018 72.7709C55.387 72.9189 55.3475 73.0619 55.2782 73.1705C55.036 73.5898 54.5712 73.8463 54.1311 73.8068ZM59.7875 55.9742C59.7381 56.5316 59.2486 57.0742 58.5761 57.015C58.0174 56.9657 57.4389 56.507 57.4983 55.8311C57.5477 55.2491 58.0421 54.6719 58.7146 54.7311C59.214 54.7755 59.5996 55.0715 59.7628 55.5598C59.7826 55.7078 59.8023 55.8311 59.7875 55.9742ZM56.9 75.8688C56.2276 75.8096 55.8073 75.2423 55.8567 74.6306C55.9161 73.9301 56.544 73.5454 57.0978 73.5898C57.7702 73.6489 58.1905 74.2458 58.1361 74.8575C58.1262 74.9463 58.0866 75.0894 58.0421 75.2324C57.7999 75.6863 57.3697 75.9132 56.9 75.8688ZM62.0026 56.6105C61.3005 56.5514 60.9099 55.9545 60.9593 55.3724C61.0187 54.7015 61.612 54.3118 62.1657 54.3611C62.8382 54.4203 63.2881 54.9876 63.2387 55.5746C63.2238 55.7226 63.1843 55.8657 63.1151 55.9742C62.8777 56.4182 62.4426 56.6451 62.0026 56.6105ZM61.4735 75.8293C61.4241 76.3867 60.9049 76.9294 60.2325 76.8702C59.6787 76.8208 59.1299 76.3325 59.1892 75.6616C59.2436 75.0499 59.7578 74.532 60.4303 74.5911C60.9 74.6306 61.3104 74.9611 61.4191 75.4149C61.4686 75.5629 61.4834 75.7109 61.4735 75.8293ZM64.539 55.9495C64.5885 55.3674 65.1076 54.8495 65.7801 54.9087C66.4525 54.9679 66.8777 55.5056 66.8184 56.1764C66.7591 56.8473 66.2547 57.2469 65.5823 57.1877C65.0236 57.1384 64.5934 56.7191 64.5539 56.1567C64.5242 56.1222 64.5292 56.0334 64.539 55.9495ZM62.8036 75.7948C62.858 75.1831 63.3722 74.6947 64.0446 74.7539C64.717 74.8131 65.1423 75.3508 65.0829 76.0513C65.0335 76.6038 64.5242 77.0626 63.8518 77.0034C63.2931 76.954 62.858 76.5643 62.8184 76.002C62.7887 75.9724 62.7937 75.8836 62.8036 75.7948ZM66.1114 74.7293C66.1658 74.1176 66.7344 73.6687 67.3475 73.718C67.9606 73.7723 68.4451 74.3149 68.3858 74.9858C68.3363 75.5679 67.8518 76.0562 67.1497 75.997C66.5959 75.9477 66.1559 75.558 66.1163 74.9956C66.0916 74.9364 66.0965 74.8477 66.1114 74.7293ZM68.9148 56.4428C69.5873 56.502 70.0075 57.0989 69.9581 57.6514C69.8988 58.3223 69.2708 58.7662 68.6874 58.7169C68.0149 58.6577 67.5947 58.0608 67.6441 57.5083C67.6639 57.3061 67.7381 57.1038 67.8716 56.9115C68.1089 56.5514 68.4797 56.4083 68.9148 56.4428ZM68.5836 72.7413C68.6379 72.1296 69.2115 71.6215 69.8295 71.6758C70.502 71.735 70.9568 72.2727 70.8975 72.9435C70.8431 73.5552 70.3635 74.014 69.6318 73.9499C69.073 73.9005 68.6379 73.5108 68.5984 72.9485C68.5687 72.9139 68.5737 72.8301 68.5836 72.7413ZM71.2585 58.9734C71.9309 59.0326 72.3512 59.5999 72.3067 60.1524C72.2473 60.8233 71.6441 61.3018 71.0607 61.2475C70.3882 61.1883 69.968 60.5914 70.0174 60.0389C70.0372 59.8367 70.1114 59.6344 70.2449 59.4421C70.4822 59.082 70.8233 58.934 71.2585 58.9734ZM70.5168 69.821C70.5662 69.2389 71.1151 68.7259 71.7875 68.7851C72.3709 68.8344 72.8901 69.3228 72.8308 70.0232C72.7714 70.6941 72.2028 71.1134 71.5304 71.0592C70.9766 71.0098 70.5662 70.6201 70.5316 70.0331C70.502 69.9936 70.5119 69.9098 70.5168 69.821ZM72.3858 61.9529C73.0582 62.0121 73.5081 62.609 73.4538 63.1911C73.3944 63.862 72.7962 64.3109 72.2424 64.2616C71.57 64.2024 71.125 63.5759 71.1744 62.9938C71.1892 62.8162 71.2683 62.6189 71.4018 62.4265C71.6392 62.0664 71.9754 61.9184 72.3858 61.9529ZM72.6429 65.4159C73.3153 65.4751 73.7653 66.0719 73.7109 66.6836C73.6515 67.3545 73.0582 67.7442 72.4451 67.6899C71.7727 67.6308 71.3524 67.0339 71.4018 66.4518C71.4167 66.2791 71.4958 66.0769 71.6293 65.8845C71.9259 65.5293 72.2671 65.3567 72.6429 65.4159Z" fill="#FBB03B"/>
</g>
<defs>
<clipPath id="clip0_723_7492">
<rect width="76" height="135" fill="white"/>
</clipPath>
</defs>
</svg>
