<svg width="20" height="21" viewBox="0 0 20 21" fill="none" xmlns="http://www.w3.org/2000/svg">
<path d="M10 0.5C8.0222 0.5 6.08879 1.08649 4.4443 2.1853C2.79981 3.28412 1.51809 4.8459 0.761211 6.67317C0.00433075 8.5004 -0.193699 10.5111 0.192151 12.4509C0.578001 14.3907 1.53041 16.1725 2.92894 17.5711C4.32746 18.9696 6.10929 19.922 8.0491 20.3079C9.9889 20.6937 11.9996 20.4957 13.8268 19.7388C15.6541 18.9819 17.2159 17.7002 18.3147 16.0557C19.4135 14.4112 20 12.4778 20 10.5C20 9.1868 19.7413 7.88642 19.2388 6.67317C18.7363 5.45991 17.9997 4.35752 17.0711 3.42893C16.1425 2.50035 15.0401 1.76375 13.8268 1.2612C12.6136 0.75866 11.3132 0.5 10 0.5ZM9.3975 13.4565L6.0645 10.123L7.2656 8.9209L9.3975 11.0522L12.9219 7.5293L14.123 8.7314L9.3975 13.4565Z" fill="#9C7C56"/>
</svg>
